#N canvas 126 421 451 300 10;
#X obj 17 63 adc~;
#N canvas 0 0 450 300 (subpatch) 0;
#X array inscope 1920 float 2;
#X coords 0 1 1919 -1 200 140 1;
#X restore 17 147 graph;
#N canvas 0 0 450 300 (subpatch) 0;
#X array outscope 1920 float 2;
#X coords 0 1 1919 -1 200 140 1;
#X restore 233 146 graph;
#X obj 18 111 tabwrite~ inscope;
#X obj 234 42 osc~ 440;
#X obj 125 61 metro 40;
#X obj 234 109 tabwrite~ outscope;
#X obj 125 33 tgl 15 0 empty toggle empty 17 7 0 10 -262144 -1 -1 0
1;
#X obj 373 72 loadbang;
#X floatatom 234 15 5 0 0 0 freq - -;
#X obj 235 75 *~ 0.5;
#X obj 301 43 hsl 128 15 0 1 0 0 empty empty volume -2 -8 0 10 -262144
-1 -1 0 1;
#X obj 195 108 dac~;
#X msg 373 98 \; toggle 1 \; pd dsp 1;
#X connect 0 0 3 0;
#X connect 4 0 10 0;
#X connect 5 0 3 0;
#X connect 5 0 6 0;
#X connect 7 0 5 0;
#X connect 8 0 13 0;
#X connect 9 0 4 0;
#X connect 10 0 6 0;
#X connect 10 0 12 0;
#X connect 10 0 12 1;
#X connect 11 0 10 1;
