#N canvas 67 334 450 300 10;
#X obj 33 187 netreceive 4711 1;
#X obj 33 215 route reload play;
#X obj 90 239 s play;
#X text 30 122 - play arg: Sends arg (usually 0 or 1) to the 'play'
receiver. This is intended as a simple kind of remote playback control.
You still have to set up some control element in your patch which receives
the 'play' value.;
#X text 29 12 Control the Pure runtime remotely. You can use pdsend
to send the following messages to UDP port 4711 (add other messages
or modify the port number as desired):;
#X text 28 62 - reload: Restarts the Pure runtime environment. Use
this after modifying the definition of Pure objects in script files
to quickly reload all scripts and reconfigure the Pure objects accordingly.
;
#X msg 33 239 reload;
#X obj 33 264 s pure;
#X obj 278 232 bng 15 250 50 0 empty empty empty 17 7 0 10 -262144
-1 -1;
#X connect 0 0 1 0;
#X connect 1 0 6 0;
#X connect 1 0 8 0;
#X connect 1 1 2 0;
#X connect 6 0 7 0;
#X coords 0 -1 1 1 115 20 1 180 230;
