#N canvas 668 411 450 317 10;
#X obj 33 187 netreceive 4711 1;
#X msg 320 232 reload;
#X obj 320 257 s pure;
#X obj 278 232 bng 15 250 50 0 empty empty empty 17 7 0 10 -262144
-1 -1;
#X obj 320 206 del 10;
#X obj 33 215 route reload;
#X msg 114 268 \; \$1 \$2;
#X text 30 122 - Any other message should be of the form 'receiver
value' \, indicating that the given value should be sent to the given
receiver. This is intended to provide some kind of remote control over
the patch \, see the pd-pure README for details.;
#X text 29 12 Control the Pure runtime remotely. You can use pdsend
to send messages to UDP port 4711 (modify the port number below as
needed).;
#X obj 114 242 list;
#X text 28 62 - The 'reload' message restarts the Pure runtime environment.
Use this after modifying the definition of Pure objects in script files
to quickly reload all scripts and reconfigure the Pure objects accordingly.
;
#X connect 0 0 5 0;
#X connect 1 0 2 0;
#X connect 3 0 4 0;
#X connect 4 0 1 0;
#X connect 5 0 3 0;
#X connect 5 1 9 0;
#X connect 9 0 6 0;
#X coords 0 -1 1 1 115 20 1 180 230;
