#N canvas 299 180 729 479 12;
#X obj 69 280 print;
#X floatatom 179 212 5 0 0 0 - - -, f 5;
#X obj 36 205 bng 15 250 50 0 empty empty empty 17 7 0 10 -262144 -1
-1;
#X obj 32 348 add 5;
#X floatatom 32 316 5 0 0 0 - - -, f 5;
#X floatatom 32 382 5 0 0 0 - - -, f 5;
#X obj 32 411 echo;
#X floatatom 408 344 5 0 0 0 - - -, f 5;
#X floatatom 371 410 5 0 0 0 - - -, f 5;
#X floatatom 426 410 5 0 0 0 - - -, f 5;
#X floatatom 552 344 5 0 0 0 - - -, f 5;
#X floatatom 619 344 5 0 0 0 - - -, f 5;
#X floatatom 552 410 5 0 0 0 - - -, f 5;
#X floatatom 620 410 5 0 0 0 - - -, f 5;
#X floatatom 273 351 5 0 0 0 - - -, f 5;
#X obj 273 285 bng 15 250 50 0 empty empty empty 17 7 0 10 -262144
-1 -1;
#X obj 273 225 tgl 15 0 empty play empty 17 7 0 10 -262144 -1 -1 0
1;
#X obj 273 254 metro 1000;
#X obj 69 245 echo;
#X msg 69 198 foo man chu;
#X text 28 445 Objects can take creation arguments.;
#X text 357 444 Objects can have multiple inlets and outlets.;
#X obj 408 373 fan 3;
#X floatatom 477 411 5 0 0 0 - - -, f 5;
#X obj 569 376 cross;
#X obj 419 240 bng 15 250 50 0 empty empty empty 17 7 0 10 -262144
-1 -1;
#X obj 419 271 mydelay 1000;
#X obj 419 302 bng 15 250 50 0 empty empty empty 17 7 0 10 -262144
-1 -1;
#X text 393 213 A simple delay.;
#X floatatom 551 242 5 0 0 0 - - -, f 5;
#X floatatom 551 304 5 0 0 0 - - -, f 5;
#X obj 551 271 mypipe 1000;
#X text 540 211 A delay line.;
#X text 29 150 This object simply echoes its input \, as it is seen
by the Pure interpreter \, which is useful for debugging purposes.
;
#X msg 450 239 stop;
#X obj 34 21 pure;
#X obj 549 104 pure-remote;
#X text 548 86 Remote control.;
#X text 508 126 Open subpatch for details.;
#X obj 573 34 pure~;
#X obj 273 318 mycounter;
#X floatatom 200 343 5 0 0 0 - - -, f 5;
#X obj 123 402 bng 15 250 50 0 empty empty empty 17 7 0 10 -262144
-1 -1;
#X obj 151 402 bng 15 250 50 0 empty empty empty 17 7 0 10 -262144
-1 -1;
#X obj 179 402 bng 15 250 50 0 empty empty empty 17 7 0 10 -262144
-1 -1;
#X obj 123 373 mysel a b c;
#X msg 104 320 a;
#X msg 140 320 b;
#X msg 177 320 c;
#X floatatom 208 401 5 0 0 0 - - -, f 5;
#X text 31 80 For details please see the included README file or the
manual at http://puredocs.bitbucket.org/pd-pure.html.;
#X text 257 200 A counter.;
#X text 557 57 Open Help.;
#X text 78 15 The Pure external and loader plugin lets you program
Pd objects in the Pure programming language.;
#X connect 1 0 18 0;
#X connect 2 0 18 0;
#X connect 3 0 5 0;
#X connect 4 0 3 0;
#X connect 5 0 6 0;
#X connect 7 0 22 0;
#X connect 10 0 24 0;
#X connect 11 0 24 1;
#X connect 15 0 40 0;
#X connect 16 0 17 0;
#X connect 17 0 15 0;
#X connect 18 0 0 0;
#X connect 19 0 18 0;
#X connect 22 0 8 0;
#X connect 22 1 9 0;
#X connect 22 2 23 0;
#X connect 24 0 12 0;
#X connect 24 1 13 0;
#X connect 25 0 26 0;
#X connect 26 0 27 0;
#X connect 29 0 31 0;
#X connect 31 0 30 0;
#X connect 34 0 26 0;
#X connect 40 0 14 0;
#X connect 41 0 45 0;
#X connect 45 0 42 0;
#X connect 45 1 43 0;
#X connect 45 2 44 0;
#X connect 45 3 49 0;
#X connect 46 0 45 0;
#X connect 47 0 45 0;
#X connect 48 0 45 0;
