#N canvas 252 327 450 300 10;
#N canvas 0 0 450 300 (subpatch) 0;
#X array scope 1764 float 2;
#X coords 0 1 1764 -1 200 140 1;
#X restore 29 133 graph;
#X obj 135 31 tgl 15 0 empty on empty 17 7 0 10 -262144 -1 -1 0 1;
#X obj 135 56 metro 40;
#X obj 272 133 tgl 15 0 empty restart empty 17 7 0 10 -262144 -1 -1
0 1;
#X msg 272 168 \; on \$1 \; pd dsp \$1;
#X obj 272 224 pure-remote;
#X obj 135 95 tabwrite~ scope;
#X obj 30 56 randomwave2~;
#X floatatom 30 96 5 0 0 0 - - -;
#X obj 33 32 hsl 64 15 0 1 0 0 empty empty empty -2 -8 0 10 -262144
-1 -1 0 1;
#X obj 272 255 s restart;
#X connect 1 0 2 0;
#X connect 2 0 6 0;
#X connect 3 0 4 0;
#X connect 5 0 10 0;
#X connect 5 1 10 0;
#X connect 7 0 8 0;
#X connect 7 1 6 0;
#X connect 9 0 7 0;
