#N canvas 502 408 450 300 12;
#N canvas 0 0 450 300 (subpatch) 0;
#X array scope 1764 float 2;
#X coords 0 1 1764 -1 200 140 1;
#X restore 29 129 graph;
#X obj 315 57 tgl 15 0 empty on empty 17 7 0 10 -262144 -1 -1 0 1;
#X obj 315 77 metro 40;
#X obj 295 174 tgl 15 0 empty empty empty 17 7 0 10 -262144 -1 -1 0
1;
#X msg 295 209 \; on \$1 \; pd dsp \$1;
#X obj 315 116 tabwrite~ scope;
#X obj 215 77 randomwave1~;
#X text 275 148 Toggle here to start.;
#X text 25 7 An example of a Pure audio object which generates random
samples. Please see randomwave1~.pure for the Pure source \, and check
the README file for details on how Pure audio objects are configured
and used.;
#X connect 1 0 2 0;
#X connect 2 0 5 0;
#X connect 3 0 4 0;
#X connect 6 1 5 0;
