#N canvas 403 412 450 300 10;
#X obj 52 84 add 5;
#X obj 117 84 counter;
#X floatatom 52 55 5 0 0 0 - - -;
#X floatatom 52 114 5 0 0 0 - - -;
#X obj 117 54 bng 15 250 50 0 empty empty empty 17 7 0 10 -262144 -1
-1;
#X floatatom 117 114 5 0 0 0 - - -;
#X connect 0 0 3 0;
#X connect 1 0 5 0;
#X connect 2 0 0 0;
#X connect 4 0 1 0;
