#N canvas 186 81 993 647 10;
#X obj 498 544 tgl 30 0 empty play empty 17 7 0 10 -203904 -1 -1 1
1;
#X obj 578 603 faust-remote;
#X msg 498 584 \; on \$1 \; pd dsp \$1;
#X text 542 551 audio on/off;
#N canvas 2 52 450 300 \$0-fx1 0;
#X obj 10 30 hsl 128 15 0 0.2 0 0 1002-fx1:chorus/delay 1002-fx1:chorus/delay
delay -2 -6 0 10 -262144 -1 -1 1587 1;
#X obj 160 30 nbx 5 14 0 0.2 0 0 1002-fx1:chorus/delay 1002-fx1:chorus/delay
empty 0 -6 0 10 -262144 -1 -1 0.025 256;
#X obj 10 60 hsl 128 15 0 1 0 0 1002-fx1:chorus/depth 1002-fx1:chorus/depth
depth -2 -6 0 10 -262144 -1 -1 254 1;
#X obj 160 60 nbx 5 14 0 1 0 0 1002-fx1:chorus/depth 1002-fx1:chorus/depth
empty 0 -6 0 10 -262144 -1 -1 0.02 256;
#X obj 10 90 hsl 128 15 0 10 0 0 1002-fx1:chorus/freq 1002-fx1:chorus/freq
freq -2 -6 0 10 -262144 -1 -1 3810 1;
#X obj 160 90 nbx 5 14 0 10 0 0 1002-fx1:chorus/freq 1002-fx1:chorus/freq
empty 0 -6 0 10 -262144 -1 -1 3 256;
#X obj 10 120 hsl 128 15 0 1 0 0 1002-fx1:chorus/level 1002-fx1:chorus/level
level -2 -6 0 10 -262144 -1 -1 6350 1;
#X obj 160 120 nbx 5 14 0 1 0 0 1002-fx1:chorus/level 1002-fx1:chorus/level
empty 0 -6 0 10 -262144 -1 -1 0.5 256;
#X obj 177 3 tgl 15 1 1002-fx1:record 1002-fx1:record empty 0 -6 0
10 -233017 -1 -1 0 1;
#X obj 197 3 bng 15 250 50 1 1002-fx1:init 1002-fx1:init empty 0 -6
0 10 -262144 -1 -1;
#X obj 217 3 tgl 15 1 1002-fx1:active 1002-fx1:active empty 0 -6 0
10 -262144 -1 -1 1 1;
#X coords 0 -1 1 1 235 150 1 0 0;
#X restore 737 16 pd \$0-fx1;
#N canvas 2 52 450 300 \$0-fx2 0;
#X obj 10 30 hsl 128 15 0 1 0 0 1002-fx2:freeverb/damp 1002-fx2:freeverb/damp
damp -2 -6 0 10 -262144 -1 -1 6350 1;
#X obj 160 30 nbx 5 14 0 1 0 0 1002-fx2:freeverb/damp 1002-fx2:freeverb/damp
empty 0 -6 0 10 -262144 -1 -1 0.5 256;
#X obj 10 60 hsl 128 15 0 1 0 0 1002-fx2:freeverb/roomsize 1002-fx2:freeverb/roomsize
roomsize -2 -6 0 10 -262144 -1 -1 6350 1;
#X obj 160 60 nbx 5 14 0 1 0 0 1002-fx2:freeverb/roomsize 1002-fx2:freeverb/roomsize
empty 0 -6 0 10 -262144 -1 -1 0.5 256;
#X obj 10 90 hsl 128 15 0 1 0 0 1002-fx2:freeverb/wet 1002-fx2:freeverb/wet
wet -2 -6 0 10 -262144 -1 -1 3175 1;
#X obj 160 90 nbx 5 14 0 1 0 0 1002-fx2:freeverb/wet 1002-fx2:freeverb/wet
empty 0 -6 0 10 -262144 -1 -1 0.25 256;
#X obj 177 3 tgl 15 1 1002-fx2:record 1002-fx2:record empty 0 -6 0
10 -233017 -1 -1 0 1;
#X obj 197 3 bng 15 250 50 1 1002-fx2:init 1002-fx2:init empty 0 -6
0 10 -262144 -1 -1;
#X obj 217 3 tgl 15 1 1002-fx2:active 1002-fx2:active empty 0 -6 0
10 -262144 -1 -1 1 1;
#X coords 0 -1 1 1 235 120 1 0 0;
#X restore 737 170 pd \$0-fx2;
#N canvas 2 52 450 300 \$0-fx3 0;
#X obj 10 30 nbx 5 14 -20 20 0 0 1002-fx3:amp/bass 1002-fx3:amp/bass
bass 0 -6 0 10 -262144 -1 -1 0 256;
#X obj 85 30 nbx 5 14 -20 20 0 0 1002-fx3:amp/treble 1002-fx3:amp/treble
treble 0 -6 0 10 -262144 -1 -1 0 256;
#X obj 160 30 nbx 5 14 -96 10 0 0 1002-fx3:amp/gain 1002-fx3:amp/gain
gain 0 -6 0 10 -262144 -1 -1 0 256;
#X obj 10 60 hsl 128 15 -1 1 0 0 1002-fx3:amp/balance 1002-fx3:amp/balance
balance -2 -6 0 10 -262144 -1 -1 6350 1;
#X obj 160 60 nbx 5 14 -1 1 0 0 1002-fx3:amp/balance 1002-fx3:amp/balance
empty 0 -6 0 10 -262144 -1 -1 0 256;
#X obj 10 90 hsl 128 15 -96 10 0 0 1002-fx3:amp/left 1002-fx3:amp/left
left -2 -6 0 10 -233017 -1 -1 351 1;
#X obj 160 90 nbx 5 14 -96 10 0 0 1002-fx3:amp/left 1002-fx3:amp/left
empty 0 -6 0 10 -233017 -1 -1 -93.0732 256;
#X obj 10 120 hsl 128 15 -96 10 0 0 1002-fx3:amp/right 1002-fx3:amp/right
right -2 -6 0 10 -233017 -1 -1 521 1;
#X obj 160 120 nbx 5 14 -96 10 0 0 1002-fx3:amp/right 1002-fx3:amp/right
empty 0 -6 0 10 -233017 -1 -1 -91.6499 256;
#X obj 177 3 tgl 15 1 1002-fx3:record 1002-fx3:record empty 0 -6 0
10 -233017 -1 -1 0 1;
#X obj 197 3 bng 15 250 50 1 1002-fx3:init 1002-fx3:init empty 0 -6
0 10 -262144 -1 -1;
#X obj 217 3 tgl 15 1 1002-fx3:active 1002-fx3:active empty 0 -6 0
10 -262144 -1 -1 1 1;
#X coords 0 -1 1 1 235 150 1 0 0;
#X restore 737 295 pd \$0-fx3;
#N canvas 0 22 450 300 (subpatch) 0;
#X array scope-l 1764 float 0;
#X array scope-r 1764 float 0;
#X coords 0 1 1764 -1 203 149 1 0 0;
#X restore 22 30 graph;
#N canvas 2 52 450 300 \$0-melody 0;
#X obj 10 30 hsl 128 15 0 1 0 0 1002-melody:organ/pan 1002-melody:organ/pan
pan -2 -6 0 10 -262144 -1 -1 6350 1;
#X obj 160 30 nbx 5 14 0 1 0 0 1002-melody:organ/pan 1002-melody:organ/pan
empty 0 -6 0 10 -262144 -1 -1 0.5 256;
#X obj 10 60 hsl 128 15 0 1 0 0 1002-melody:organ/vol 1002-melody:organ/vol
vol -2 -6 0 10 -262144 -1 -1 3810 1;
#X obj 160 60 nbx 5 14 0 1 0 0 1002-melody:organ/vol 1002-melody:organ/vol
empty 0 -6 0 10 -262144 -1 -1 0.3 256;
#X obj 10 90 hsl 128 15 0 3 0 0 1002-melody:organ/amp1 1002-melody:organ/amp1
amp1 -2 -6 0 10 -262144 -1 -1 4233 1;
#X obj 160 90 nbx 5 14 0 3 0 0 1002-melody:organ/amp1 1002-melody:organ/amp1
empty 0 -6 0 10 -262144 -1 -1 1 256;
#X obj 10 120 hsl 128 15 0 3 0 0 1002-melody:organ/amp2 1002-melody:organ/amp2
amp2 -2 -6 0 10 -262144 -1 -1 2117 1;
#X obj 160 120 nbx 5 14 0 3 0 0 1002-melody:organ/amp2 1002-melody:organ/amp2
empty 0 -6 0 10 -262144 -1 -1 0.5 256;
#X obj 10 150 hsl 128 15 0 3 0 0 1002-melody:organ/amp3 1002-melody:organ/amp3
amp3 -2 -6 0 10 -262144 -1 -1 1058 1;
#X obj 160 150 nbx 5 14 0 3 0 0 1002-melody:organ/amp3 1002-melody:organ/amp3
empty 0 -6 0 10 -262144 -1 -1 0.25 256;
#X obj 10 180 hsl 128 15 0 1 0 0 1002-melody:organ/attack 1002-melody:organ/attack
attack -2 -6 0 10 -262144 -1 -1 127 1;
#X obj 160 180 nbx 5 14 0 1 0 0 1002-melody:organ/attack 1002-melody:organ/attack
empty 0 -6 0 10 -262144 -1 -1 0.01 256;
#X obj 10 210 hsl 128 15 0 1 0 0 1002-melody:organ/decay 1002-melody:organ/decay
decay -2 -6 0 10 -262144 -1 -1 3810 1;
#X obj 160 210 nbx 5 14 0 1 0 0 1002-melody:organ/decay 1002-melody:organ/decay
empty 0 -6 0 10 -262144 -1 -1 0.3 256;
#X obj 10 240 hsl 128 15 0 1 0 0 1002-melody:organ/sustain 1002-melody:organ/sustain
sustain -2 -6 0 10 -262144 -1 -1 6350 1;
#X obj 160 240 nbx 5 14 0 1 0 0 1002-melody:organ/sustain 1002-melody:organ/sustain
empty 0 -6 0 10 -262144 -1 -1 0.5 256;
#X obj 10 270 hsl 128 15 0 1 0 0 1002-melody:organ/release 1002-melody:organ/release
release -2 -6 0 10 -262144 -1 -1 2540 1;
#X obj 160 270 nbx 5 14 0 1 0 0 1002-melody:organ/release 1002-melody:organ/release
empty 0 -6 0 10 -262144 -1 -1 0.2 256;
#X obj 177 3 tgl 15 1 1002-melody:record 1002-melody:record empty 0
-6 0 10 -233017 -1 -1 0 1;
#X obj 197 3 bng 15 250 50 1 1002-melody:init 1002-melody:init empty
0 -6 0 10 -262144 -1 -1;
#X obj 217 3 tgl 15 1 1002-melody:active 1002-melody:active empty 0
-6 0 10 -262144 -1 -1 1 1;
#X coords 0 -1 1 1 235 300 1 0 0;
#X restore 247 16 pd \$0-melody;
#N canvas 2 52 450 300 \$0-bass 0;
#X obj 10 30 hsl 128 15 20 1000 0 0 1002-bass:bass/Nonlinear-Filter-Parameters/Modulation-Frequency
1002-bass:bass/Nonlinear-Filter-Parameters/Modulation-Frequency Modulation-Frequency
-2 -6 0 10 -262144 -1 -1 2592 1;
#X obj 160 30 nbx 5 14 20 1000 0 0 1002-bass:bass/Nonlinear-Filter-Parameters/Modulation-Frequency
1002-bass:bass/Nonlinear-Filter-Parameters/Modulation-Frequency empty
0 -6 0 10 -262144 -1 -1 220 256;
#X obj 10 60 hradio 15 1 0 5 1002-bass:bass/Nonlinear-Filter-Parameters/Modulation-Type
1002-bass:bass/Nonlinear-Filter-Parameters/Modulation-Type Modulation-Type
0 -6 0 10 -262144 -1 -1 0;
#X obj 10 90 hsl 128 15 0 1 0 0 1002-bass:bass/Nonlinear-Filter-Parameters/Nonlinearity
1002-bass:bass/Nonlinear-Filter-Parameters/Nonlinearity Nonlinearity
-2 -6 0 10 -262144 -1 -1 0 1;
#X obj 160 90 nbx 5 14 0 1 0 0 1002-bass:bass/Nonlinear-Filter-Parameters/Nonlinearity
1002-bass:bass/Nonlinear-Filter-Parameters/Nonlinearity empty 0 -6
0 10 -262144 -1 -1 0 256;
#X obj 10 120 hsl 128 15 0 1 0 0 1002-bass:bass/Physical-Parameters/Touch-Length
1002-bass:bass/Physical-Parameters/Touch-Length Touch-Length -2 -6
0 10 -262144 -1 -1 1905 1;
#X obj 160 120 nbx 5 14 0 1 0 0 1002-bass:bass/Physical-Parameters/Touch-Length
1002-bass:bass/Physical-Parameters/Touch-Length empty 0 -6 0 10 -262144
-1 -1 0.15 256;
#X obj 10 150 hsl 128 15 0 1 0 0 1002-bass:bass/Reverb/reverbGain 1002-bass:bass/Reverb/reverbGain
reverbGain -2 -6 0 10 -262144 -1 -1 1740 1;
#X obj 160 150 nbx 5 14 0 1 0 0 1002-bass:bass/Reverb/reverbGain 1002-bass:bass/Reverb/reverbGain
empty 0 -6 0 10 -262144 -1 -1 0.137 256;
#X obj 10 180 hsl 128 15 0.01 2 0 0 1002-bass:bass/Reverb/roomSize
1002-bass:bass/Reverb/roomSize roomSize -2 -6 0 10 -262144 -1 -1 4531
1;
#X obj 160 180 nbx 5 14 0.01 2 0 0 1002-bass:bass/Reverb/roomSize 1002-bass:bass/Reverb/roomSize
empty 0 -6 0 10 -262144 -1 -1 0.72 256;
#X obj 10 210 hsl 128 15 0 1 0 0 1002-bass:bass/Spat/pan-angle 1002-bass:bass/Spat/pan-angle
pan-angle -2 -6 0 10 -262144 -1 -1 7620 1;
#X obj 160 210 nbx 5 14 0 1 0 0 1002-bass:bass/Spat/pan-angle 1002-bass:bass/Spat/pan-angle
empty 0 -6 0 10 -262144 -1 -1 0.6 256;
#X obj 10 240 hsl 128 15 0 1 0 0 1002-bass:bass/Spat/spatial-width
1002-bass:bass/Spat/spatial-width spatial-width -2 -6 0 10 -262144
-1 -1 6350 1;
#X obj 160 240 nbx 5 14 0 1 0 0 1002-bass:bass/Spat/spatial-width 1002-bass:bass/Spat/spatial-width
empty 0 -6 0 10 -262144 -1 -1 0.5 256;
#X obj 177 3 tgl 15 1 1002-bass:record 1002-bass:record empty 0 -6
0 10 -233017 -1 -1 0 1;
#X obj 197 3 bng 15 250 50 1 1002-bass:init 1002-bass:init empty 0
-6 0 10 -262144 -1 -1;
#X obj 217 3 tgl 15 1 1002-bass:active 1002-bass:active empty 0 -6
0 10 -262144 -1 -1 1 1;
#X coords 0 -1 1 1 235 270 1 0 0;
#X restore 247 325 pd \$0-bass;
#N canvas 2 52 450 300 \$0-guitar 0;
#X obj 10 30 hsl 128 15 0 1 0 0 1002-guitar:karplus/pan 1002-guitar:karplus/pan
pan -2 -6 0 10 -262144 -1 -1 6350 1;
#X obj 160 30 nbx 5 14 0 1 0 0 1002-guitar:karplus/pan 1002-guitar:karplus/pan
empty 0 -6 0 10 -262144 -1 -1 0.5 256;
#X obj 10 60 hsl 128 15 0 1 0 0 1002-guitar:karplus/vol 1002-guitar:karplus/vol
vol -2 -6 0 10 -262144 -1 -1 3810 1;
#X obj 160 60 nbx 5 14 0 1 0 0 1002-guitar:karplus/vol 1002-guitar:karplus/vol
empty 0 -6 0 10 -262144 -1 -1 0.3 256;
#X obj 10 90 hsl 128 15 0 10 0 0 1002-guitar:karplus/decay-time 1002-guitar:karplus/decay-time
decay-time -2 -6 0 10 -262144 -1 -1 5080 1;
#X obj 160 90 nbx 5 14 0 10 0 0 1002-guitar:karplus/decay-time 1002-guitar:karplus/decay-time
empty 0 -6 0 10 -262144 -1 -1 4 256;
#X obj 10 120 hsl 128 15 1 1024 0 0 1002-guitar:karplus/samples 1002-guitar:karplus/samples
samples -2 -6 0 10 -262144 -1 -1 6344 1;
#X obj 160 120 nbx 5 14 1 1024 0 0 1002-guitar:karplus/samples 1002-guitar:karplus/samples
empty 0 -6 0 10 -262144 -1 -1 512 256;
#X obj 10 150 hsl 128 15 -2 2 0 0 1002-guitar:karplus/pitch-bend 1002-guitar:karplus/pitch-bend
pitch-bend -2 -6 0 10 -262144 -1 -1 6350 1;
#X obj 160 150 nbx 5 14 -2 2 0 0 1002-guitar:karplus/pitch-bend 1002-guitar:karplus/pitch-bend
empty 0 -6 0 10 -262144 -1 -1 0 256;
#X obj 177 3 tgl 15 1 1002-guitar:record 1002-guitar:record empty 0
-6 0 10 -233017 -1 -1 0 1;
#X obj 197 3 bng 15 250 50 1 1002-guitar:init 1002-guitar:init empty
0 -6 0 10 -262144 -1 -1;
#X obj 217 3 tgl 15 1 1002-guitar:active 1002-guitar:active empty 0
-6 0 10 -262144 -1 -1 1 1;
#X coords 0 -1 1 1 235 180 1 0 0;
#X restore 492 325 pd \$0-guitar;
#N canvas 5 78 450 300 \$0-melody2 0;
#X obj 10 30 hsl 128 15 0 1 0 0 1002-melody2:organ/pan 1002-melody2:organ/pan
pan -2 -6 0 10 -262144 -1 -1 6350 1;
#X obj 160 30 nbx 5 14 0 1 0 0 1002-melody2:organ/pan 1002-melody2:organ/pan
empty 0 -6 0 10 -262144 -1 -1 0.5 256;
#X obj 10 60 hsl 128 15 0 1 0 0 1002-melody2:organ/vol 1002-melody2:organ/vol
vol -2 -6 0 10 -262144 -1 -1 3810 1;
#X obj 160 60 nbx 5 14 0 1 0 0 1002-melody2:organ/vol 1002-melody2:organ/vol
empty 0 -6 0 10 -262144 -1 -1 0.3 256;
#X obj 10 90 hsl 128 15 0 3 0 0 1002-melody2:organ/amp1 1002-melody2:organ/amp1
amp1 -2 -6 0 10 -262144 -1 -1 4233 1;
#X obj 160 90 nbx 5 14 0 3 0 0 1002-melody2:organ/amp1 1002-melody2:organ/amp1
empty 0 -6 0 10 -262144 -1 -1 1 256;
#X obj 10 120 hsl 128 15 0 3 0 0 1002-melody2:organ/amp2 1002-melody2:organ/amp2
amp2 -2 -6 0 10 -262144 -1 -1 2117 1;
#X obj 160 120 nbx 5 14 0 3 0 0 1002-melody2:organ/amp2 1002-melody2:organ/amp2
empty 0 -6 0 10 -262144 -1 -1 0.5 256;
#X obj 10 150 hsl 128 15 0 3 0 0 1002-melody2:organ/amp3 1002-melody2:organ/amp3
amp3 -2 -6 0 10 -262144 -1 -1 1058 1;
#X obj 160 150 nbx 5 14 0 3 0 0 1002-melody2:organ/amp3 1002-melody2:organ/amp3
empty 0 -6 0 10 -262144 -1 -1 0.25 256;
#X obj 10 180 hsl 128 15 0 1 0 0 1002-melody2:organ/attack 1002-melody2:organ/attack
attack -2 -6 0 10 -262144 -1 -1 127 1;
#X obj 160 180 nbx 5 14 0 1 0 0 1002-melody2:organ/attack 1002-melody2:organ/attack
empty 0 -6 0 10 -262144 -1 -1 0.01 256;
#X obj 10 210 hsl 128 15 0 1 0 0 1002-melody2:organ/decay 1002-melody2:organ/decay
decay -2 -6 0 10 -262144 -1 -1 3810 1;
#X obj 160 210 nbx 5 14 0 1 0 0 1002-melody2:organ/decay 1002-melody2:organ/decay
empty 0 -6 0 10 -262144 -1 -1 0.3 256;
#X obj 10 240 hsl 128 15 0 1 0 0 1002-melody2:organ/sustain 1002-melody2:organ/sustain
sustain -2 -6 0 10 -262144 -1 -1 6350 1;
#X obj 160 240 nbx 5 14 0 1 0 0 1002-melody2:organ/sustain 1002-melody2:organ/sustain
empty 0 -6 0 10 -262144 -1 -1 0.5 256;
#X obj 10 270 hsl 128 15 0 1 0 0 1002-melody2:organ/release 1002-melody2:organ/release
release -2 -6 0 10 -262144 -1 -1 2540 1;
#X obj 160 270 nbx 5 14 0 1 0 0 1002-melody2:organ/release 1002-melody2:organ/release
empty 0 -6 0 10 -262144 -1 -1 0.2 256;
#X obj 177 3 tgl 15 1 1002-melody2:record 1002-melody2:record empty
0 -6 0 10 -233017 -1 -1 0 1;
#X obj 197 3 bng 15 250 50 1 1002-melody2:init 1002-melody2:init empty
0 -6 0 10 -262144 -1 -1;
#X obj 217 3 tgl 15 1 1002-melody2:active 1002-melody2:active empty
0 -6 0 10 -262144 -1 -1 1 1;
#X coords 0 -1 1 1 235 300 1 0 0;
#X restore 492 16 pd \$0-melody2;
#X obj 22 185 midiosc bouree;
#X obj 23 564 bng 15 250 50 0 reload empty empty 17 7 0 10 -262144
-1 -1;
#X text 47 562 reload all Faust modules;
#X obj 22 301 faust~ organ "\$0-melody" 0x003 3;
#X obj 22 327 faust~ organ "\$0-melody2" 0x02 3;
#X obj 22 353 faust~ bass "\$0-bass" 0x000004 3;
#X obj 22 378 faust~ karplus "\$0-guitar" 0x5 8;
#X obj 22 431 faust~ chorus "\$0-fx1" 0x0000001;
#X obj 22 462 faust~ freeverb "\$0-fx2" 0x00001;
#X obj 22 491 faust~ amp "\$0-fx3" 0x0000000001;
#N canvas 543 488 450 300 audio 0;
#X obj 140 24 tgl 15 0 empty on empty 17 7 0 10 -262144 -1 -1 1 1;
#X obj 140 53 metro 40;
#X obj 52 99 dac~;
#X obj 19 53 inlet~;
#X obj 74 53 inlet~;
#X obj 140 100 tabwrite~ scope-l;
#X obj 140 80 tabwrite~ scope-r;
#X connect 0 0 1 0;
#X connect 1 0 6 0;
#X connect 1 0 5 0;
#X connect 3 0 2 0;
#X connect 3 0 5 0;
#X connect 4 0 2 1;
#X connect 4 0 6 0;
#X restore 116 525 pd audio;
#X connect 0 0 2 0;
#X connect 12 0 15 0;
#X connect 12 0 16 0;
#X connect 12 0 17 0;
#X connect 12 0 18 0;
#X connect 12 0 19 0;
#X connect 12 0 20 0;
#X connect 12 0 21 0;
#X connect 15 1 19 1;
#X connect 15 2 19 2;
#X connect 16 1 19 1;
#X connect 16 2 19 2;
#X connect 17 1 19 1;
#X connect 17 2 19 2;
#X connect 18 1 19 1;
#X connect 18 2 19 2;
#X connect 19 1 20 1;
#X connect 19 2 20 2;
#X connect 20 1 21 1;
#X connect 20 2 21 2;
#X connect 21 1 22 0;
#X connect 21 2 22 1;
