#N canvas 200 182 993 647 10;
#X obj 498 544 tgl 30 0 empty play empty 17 7 0 10 -203904 -1 -1 0
1;
#X obj 578 603 faust-remote;
#X msg 498 584 \; on \$1 \; pd dsp \$1;
#N canvas 543 488 450 300 audio 0;
#X obj 140 24 tgl 15 0 empty on empty 17 7 0 10 -262144 -1 -1 0 1;
#X obj 140 53 metro 40;
#X obj 52 99 dac~;
#X obj 19 53 inlet~;
#X obj 74 53 inlet~;
#X obj 140 100 tabwrite~ scope-l;
#X obj 140 80 tabwrite~ scope-r;
#X connect 0 0 1 0;
#X connect 1 0 6 0;
#X connect 1 0 5 0;
#X connect 3 0 2 0;
#X connect 3 0 5 0;
#X connect 4 0 2 1;
#X connect 4 0 6 0;
#X restore 118 503 pd audio;
#X text 542 551 audio on/off;
#N canvas 2 52 450 300 \$0-fx1 0;
#X obj 10 30 hsl 128 15 0 0.2 0 0 1002-fx1:chorus/delay 1002-fx1:chorus/delay
delay -2 -6 0 10 -262144 -1 -1 1587 1;
#X obj 160 30 nbx 5 14 0 0.2 0 0 1002-fx1:chorus/delay 1002-fx1:chorus/delay
empty 0 -6 0 10 -262144 -1 -1 0.025 256;
#X obj 10 60 hsl 128 15 0 1 0 0 1002-fx1:chorus/depth 1002-fx1:chorus/depth
depth -2 -6 0 10 -262144 -1 -1 254 1;
#X obj 160 60 nbx 5 14 0 1 0 0 1002-fx1:chorus/depth 1002-fx1:chorus/depth
empty 0 -6 0 10 -262144 -1 -1 0.02 256;
#X obj 10 90 hsl 128 15 0 10 0 0 1002-fx1:chorus/freq 1002-fx1:chorus/freq
freq -2 -6 0 10 -262144 -1 -1 3810 1;
#X obj 160 90 nbx 5 14 0 10 0 0 1002-fx1:chorus/freq 1002-fx1:chorus/freq
empty 0 -6 0 10 -262144 -1 -1 3 256;
#X obj 10 120 hsl 128 15 0 1 0 0 1002-fx1:chorus/level 1002-fx1:chorus/level
level -2 -6 0 10 -262144 -1 -1 6350 1;
#X obj 160 120 nbx 5 14 0 1 0 0 1002-fx1:chorus/level 1002-fx1:chorus/level
empty 0 -6 0 10 -262144 -1 -1 0.5 256;
#X obj 177 3 tgl 15 1 1002-fx1:record 1002-fx1:record empty 0 -6 0
10 -233017 -1 -1 0 1;
#X obj 197 3 bng 15 250 50 1 1002-fx1:init 1002-fx1:init empty 0 -6
0 10 -262144 -1 -1;
#X obj 217 3 tgl 15 1 1002-fx1:active 1002-fx1:active empty 0 -6 0
10 -262144 -1 -1 1 1;
#X coords 0 -1 1 1 235 150 1 0 0;
#X restore 737 16 pd \$0-fx1;
#N canvas 2 52 450 300 \$0-fx2 0;
#X obj 10 30 hsl 128 15 0 1 0 0 1002-fx2:freeverb/damp 1002-fx2:freeverb/damp
damp -2 -6 0 10 -262144 -1 -1 6350 1;
#X obj 160 30 nbx 5 14 0 1 0 0 1002-fx2:freeverb/damp 1002-fx2:freeverb/damp
empty 0 -6 0 10 -262144 -1 -1 0.5 256;
#X obj 10 60 hsl 128 15 0 1 0 0 1002-fx2:freeverb/roomsize 1002-fx2:freeverb/roomsize
roomsize -2 -6 0 10 -262144 -1 -1 6350 1;
#X obj 160 60 nbx 5 14 0 1 0 0 1002-fx2:freeverb/roomsize 1002-fx2:freeverb/roomsize
empty 0 -6 0 10 -262144 -1 -1 0.5 256;
#X obj 10 90 hsl 128 15 0 1 0 0 1002-fx2:freeverb/wet 1002-fx2:freeverb/wet
wet -2 -6 0 10 -262144 -1 -1 3175 1;
#X obj 160 90 nbx 5 14 0 1 0 0 1002-fx2:freeverb/wet 1002-fx2:freeverb/wet
empty 0 -6 0 10 -262144 -1 -1 0.25 256;
#X obj 177 3 tgl 15 1 1002-fx2:record 1002-fx2:record empty 0 -6 0
10 -233017 -1 -1 0 1;
#X obj 197 3 bng 15 250 50 1 1002-fx2:init 1002-fx2:init empty 0 -6
0 10 -262144 -1 -1;
#X obj 217 3 tgl 15 1 1002-fx2:active 1002-fx2:active empty 0 -6 0
10 -262144 -1 -1 1 1;
#X coords 0 -1 1 1 235 120 1 0 0;
#X restore 737 170 pd \$0-fx2;
#N canvas 2 52 450 300 \$0-fx3 0;
#X obj 10 30 nbx 5 14 -20 20 0 0 1002-fx3:amp/0-amp/1-tone/bass 1002-fx3:amp/0-amp/1-tone/bass
bass 0 -6 0 10 -262144 -1 -1 0 256;
#X obj 85 30 nbx 5 14 -20 20 0 0 1002-fx3:amp/0-amp/1-tone/treble 1002-fx3:amp/0-amp/1-tone/treble
treble 0 -6 0 10 -262144 -1 -1 0 256;
#X obj 160 30 nbx 5 14 -96 10 0 0 1002-fx3:amp/0-amp/2-gain/gain 1002-fx3:amp/0-amp/2-gain/gain
gain 0 -6 0 10 -262144 -1 -1 0 256;
#X obj 10 60 hsl 128 15 -1 1 0 0 1002-fx3:amp/3-balance/balance 1002-fx3:amp/3-balance/balance
balance -2 -6 0 10 -262144 -1 -1 6350 1;
#X obj 160 60 nbx 5 14 -1 1 0 0 1002-fx3:amp/3-balance/balance 1002-fx3:amp/3-balance/balance
empty 0 -6 0 10 -262144 -1 -1 0 256;
#X obj 10 90 hsl 128 15 -96 10 0 0 1002-fx3:amp/4-meter/left 1002-fx3:amp/4-meter/left
left -2 -6 0 10 -233017 -1 -1 11502 1;
#X obj 160 90 nbx 5 14 -96 10 0 0 1002-fx3:amp/4-meter/left 1002-fx3:amp/4-meter/left
empty 0 -6 0 10 -233017 -1 -1 0 256;
#X obj 10 120 hsl 128 15 -96 10 0 0 1002-fx3:amp/4-meter/right 1002-fx3:amp/4-meter/right
right -2 -6 0 10 -233017 -1 -1 11502 1;
#X obj 160 120 nbx 5 14 -96 10 0 0 1002-fx3:amp/4-meter/right 1002-fx3:amp/4-meter/right
empty 0 -6 0 10 -233017 -1 -1 0 256;
#X obj 177 3 tgl 15 1 1002-fx3:record 1002-fx3:record empty 0 -6 0
10 -233017 -1 -1 0 1;
#X obj 197 3 bng 15 250 50 1 1002-fx3:init 1002-fx3:init empty 0 -6
0 10 -262144 -1 -1;
#X obj 217 3 tgl 15 1 1002-fx3:active 1002-fx3:active empty 0 -6 0
10 -262144 -1 -1 1 1;
#X coords 0 -1 1 1 235 150 1 0 0;
#X restore 737 295 pd \$0-fx3;
#N canvas 0 0 450 300 (subpatch) 0;
#X array scope-l 1920 float 0;
#X array scope-r 1920 float 0;
#X coords 0 1 1919 -1 200 140 1 0 0;
#X restore 22 30 graph;
#N canvas 2 52 450 300 \$0-melody 0;
#X obj 10 30 hsl 128 15 0 1 0 0 1002-melody:organ/1-adsr/attack 1002-melody:organ/1-adsr/attack
attack -2 -6 0 10 -262144 -1 -1 127 1;
#X obj 160 30 nbx 5 14 0 1 0 0 1002-melody:organ/1-adsr/attack 1002-melody:organ/1-adsr/attack
empty 0 -6 0 10 -262144 -1 -1 0.01 256;
#X obj 10 60 hsl 128 15 0 1 0 0 1002-melody:organ/1-adsr/decay 1002-melody:organ/1-adsr/decay
decay -2 -6 0 10 -262144 -1 -1 3810 1;
#X obj 160 60 nbx 5 14 0 1 0 0 1002-melody:organ/1-adsr/decay 1002-melody:organ/1-adsr/decay
empty 0 -6 0 10 -262144 -1 -1 0.3 256;
#X obj 10 90 hsl 128 15 0 1 0 0 1002-melody:organ/1-adsr/release 1002-melody:organ/1-adsr/release
release -2 -6 0 10 -262144 -1 -1 2540 1;
#X obj 160 90 nbx 5 14 0 1 0 0 1002-melody:organ/1-adsr/release 1002-melody:organ/1-adsr/release
empty 0 -6 0 10 -262144 -1 -1 0.2 256;
#X obj 10 120 hsl 128 15 0 1 0 0 1002-melody:organ/1-adsr/sustain 1002-melody:organ/1-adsr/sustain
sustain -2 -6 0 10 -262144 -1 -1 6350 1;
#X obj 160 120 nbx 5 14 0 1 0 0 1002-melody:organ/1-adsr/sustain 1002-melody:organ/1-adsr/sustain
empty 0 -6 0 10 -262144 -1 -1 0.5 256;
#X obj 10 150 hsl 128 15 0 1 0 0 1002-melody:organ/2-master/pan 1002-melody:organ/2-master/pan
pan -2 -6 0 10 -262144 -1 -1 6350 1;
#X obj 160 150 nbx 5 14 0 1 0 0 1002-melody:organ/2-master/pan 1002-melody:organ/2-master/pan
empty 0 -6 0 10 -262144 -1 -1 0.5 256;
#X obj 10 180 hsl 128 15 0 10 0 0 1002-melody:organ/2-master/vol 1002-melody:organ/2-master/vol
vol -2 -6 0 10 -262144 -1 -1 381 1;
#X obj 160 180 nbx 5 14 0 10 0 0 1002-melody:organ/2-master/vol 1002-melody:organ/2-master/vol
empty 0 -6 0 10 -262144 -1 -1 0.3 256;
#X obj 10 210 hsl 128 15 0 3 0 0 1002-melody:organ/amp1 1002-melody:organ/amp1
amp1 -2 -6 0 10 -262144 -1 -1 4233 1;
#X obj 160 210 nbx 5 14 0 3 0 0 1002-melody:organ/amp1 1002-melody:organ/amp1
empty 0 -6 0 10 -262144 -1 -1 1 256;
#X obj 10 240 hsl 128 15 0 3 0 0 1002-melody:organ/amp2 1002-melody:organ/amp2
amp2 -2 -6 0 10 -262144 -1 -1 2117 1;
#X obj 160 240 nbx 5 14 0 3 0 0 1002-melody:organ/amp2 1002-melody:organ/amp2
empty 0 -6 0 10 -262144 -1 -1 0.5 256;
#X obj 10 270 hsl 128 15 0 3 0 0 1002-melody:organ/amp3 1002-melody:organ/amp3
amp3 -2 -6 0 10 -262144 -1 -1 1058 1;
#X obj 160 270 nbx 5 14 0 3 0 0 1002-melody:organ/amp3 1002-melody:organ/amp3
empty 0 -6 0 10 -262144 -1 -1 0.25 256;
#X obj 177 3 tgl 15 1 1002-melody:record 1002-melody:record empty 0
-6 0 10 -233017 -1 -1 0 1;
#X obj 197 3 bng 15 250 50 1 1002-melody:init 1002-melody:init empty
0 -6 0 10 -262144 -1 -1;
#X obj 217 3 tgl 15 1 1002-melody:active 1002-melody:active empty 0
-6 0 10 -262144 -1 -1 1 1;
#X coords 0 -1 1 1 235 300 1 0 0;
#X restore 247 16 pd \$0-melody;
#N canvas 2 52 450 300 \$0-bass 0;
#X obj 10 30 hsl 128 15 20 1000 0 0 1002-bass:bass/Nonlinear-Filter-Parameters/Modulation-Frequency
1002-bass:bass/Nonlinear-Filter-Parameters/Modulation-Frequency Modulation-Frequency
-2 -6 0 10 -262144 -1 -1 2592 1;
#X obj 160 30 nbx 5 14 20 1000 0 0 1002-bass:bass/Nonlinear-Filter-Parameters/Modulation-Frequency
1002-bass:bass/Nonlinear-Filter-Parameters/Modulation-Frequency empty
0 -6 0 10 -262144 -1 -1 220 256;
#X obj 10 60 nbx 5 14 0 4 0 0 1002-bass:bass/Nonlinear-Filter-Parameters/Modulation-Type
1002-bass:bass/Nonlinear-Filter-Parameters/Modulation-Type Modulation-Type
0 -6 0 10 -262144 -1 -1 0 256;
#X obj 10 90 hsl 128 15 0 1 0 0 1002-bass:bass/Nonlinear-Filter-Parameters/Nonlinearity
1002-bass:bass/Nonlinear-Filter-Parameters/Nonlinearity Nonlinearity
-2 -6 0 10 -262144 -1 -1 0 1;
#X obj 160 90 nbx 5 14 0 1 0 0 1002-bass:bass/Nonlinear-Filter-Parameters/Nonlinearity
1002-bass:bass/Nonlinear-Filter-Parameters/Nonlinearity empty 0 -6
0 10 -262144 -1 -1 0 256;
#X obj 10 120 hsl 128 15 0 1 0 0 1002-bass:bass/Physical-Parameters/Touch-Length
1002-bass:bass/Physical-Parameters/Touch-Length Touch-Length -2 -6
0 10 -262144 -1 -1 1905 1;
#X obj 160 120 nbx 5 14 0 1 0 0 1002-bass:bass/Physical-Parameters/Touch-Length
1002-bass:bass/Physical-Parameters/Touch-Length empty 0 -6 0 10 -262144
-1 -1 0.15 256;
#X obj 10 150 hsl 128 15 0 1 0 0 1002-bass:bass/Reverb/reverbGain 1002-bass:bass/Reverb/reverbGain
reverbGain -2 -6 0 10 -262144 -1 -1 1740 1;
#X obj 160 150 nbx 5 14 0 1 0 0 1002-bass:bass/Reverb/reverbGain 1002-bass:bass/Reverb/reverbGain
empty 0 -6 0 10 -262144 -1 -1 0.137 256;
#X obj 10 180 hsl 128 15 0.01 2 0 0 1002-bass:bass/Reverb/roomSize
1002-bass:bass/Reverb/roomSize roomSize -2 -6 0 10 -262144 -1 -1 4531
1;
#X obj 160 180 nbx 5 14 0.01 2 0 0 1002-bass:bass/Reverb/roomSize 1002-bass:bass/Reverb/roomSize
empty 0 -6 0 10 -262144 -1 -1 0.72 256;
#X obj 10 210 hsl 128 15 0 1 0 0 1002-bass:bass/Spat/pan-angle 1002-bass:bass/Spat/pan-angle
pan-angle -2 -6 0 10 -262144 -1 -1 7620 1;
#X obj 160 210 nbx 5 14 0 1 0 0 1002-bass:bass/Spat/pan-angle 1002-bass:bass/Spat/pan-angle
empty 0 -6 0 10 -262144 -1 -1 0.6 256;
#X obj 10 240 hsl 128 15 0 1 0 0 1002-bass:bass/Spat/spatial-width
1002-bass:bass/Spat/spatial-width spatial-width -2 -6 0 10 -262144
-1 -1 6350 1;
#X obj 160 240 nbx 5 14 0 1 0 0 1002-bass:bass/Spat/spatial-width 1002-bass:bass/Spat/spatial-width
empty 0 -6 0 10 -262144 -1 -1 0.5 256;
#X obj 177 3 tgl 15 1 1002-bass:record 1002-bass:record empty 0 -6
0 10 -233017 -1 -1 0 1;
#X obj 197 3 bng 15 250 50 1 1002-bass:init 1002-bass:init empty 0
-6 0 10 -262144 -1 -1;
#X obj 217 3 tgl 15 1 1002-bass:active 1002-bass:active empty 0 -6
0 10 -262144 -1 -1 1 1;
#X coords 0 -1 1 1 235 270 1 0 0;
#X restore 247 325 pd \$0-bass;
#N canvas 2 52 450 300 \$0-guitar 0;
#X obj 10 30 hsl 128 15 1 1024 0 0 1002-guitar:karplus/1-excitator/samples
1002-guitar:karplus/1-excitator/samples samples -2 -6 0 10 -262144
-1 -1 6344 1;
#X obj 160 30 nbx 5 14 1 1024 0 0 1002-guitar:karplus/1-excitator/samples
1002-guitar:karplus/1-excitator/samples empty 0 -6 0 10 -262144 -1
-1 512 256;
#X obj 10 60 hsl 128 15 0 10 0 0 1002-guitar:karplus/2-resonator/decay-time
1002-guitar:karplus/2-resonator/decay-time decay-time -2 -6 0 10 -262144
-1 -1 5080 1;
#X obj 160 60 nbx 5 14 0 10 0 0 1002-guitar:karplus/2-resonator/decay-time
1002-guitar:karplus/2-resonator/decay-time empty 0 -6 0 10 -262144
-1 -1 4 256;
#X obj 10 90 hsl 128 15 -2 2 0 0 1002-guitar:karplus/2-resonator/pitch-bend
1002-guitar:karplus/2-resonator/pitch-bend pitch-bend -2 -6 0 10 -262144
-1 -1 6350 1;
#X obj 160 90 nbx 5 14 -2 2 0 0 1002-guitar:karplus/2-resonator/pitch-bend
1002-guitar:karplus/2-resonator/pitch-bend empty 0 -6 0 10 -262144
-1 -1 0 256;
#X obj 10 120 hsl 128 15 -1 1 0 0 1002-guitar:karplus/3-master/pan
1002-guitar:karplus/3-master/pan pan -2 -6 0 10 -262144 -1 -1 6350
1;
#X obj 160 120 nbx 5 14 -1 1 0 0 1002-guitar:karplus/3-master/pan 1002-guitar:karplus/3-master/pan
empty 0 -6 0 10 -262144 -1 -1 0 256;
#X obj 10 150 hsl 128 15 -96 96 0 0 1002-guitar:karplus/3-master/vol
1002-guitar:karplus/3-master/vol vol -2 -6 0 10 -262144 -1 -1 5689
1;
#X obj 160 150 nbx 5 14 -96 96 0 0 1002-guitar:karplus/3-master/vol
1002-guitar:karplus/3-master/vol empty 0 -6 0 10 -262144 -1 -1 -10
256;
#X obj 177 3 tgl 15 1 1002-guitar:record 1002-guitar:record empty 0
-6 0 10 -233017 -1 -1 0 1;
#X obj 197 3 bng 15 250 50 1 1002-guitar:init 1002-guitar:init empty
0 -6 0 10 -262144 -1 -1;
#X obj 217 3 tgl 15 1 1002-guitar:active 1002-guitar:active empty 0
-6 0 10 -262144 -1 -1 1 1;
#X coords 0 -1 1 1 235 180 1 0 0;
#X restore 492 325 pd \$0-guitar;
#N canvas 5 78 450 300 \$0-melody2 0;
#X obj 10 30 hsl 128 15 0 1 0 0 1002-melody2:organ/1-adsr/attack 1002-melody2:organ/1-adsr/attack
attack -2 -6 0 10 -262144 -1 -1 127 1;
#X obj 160 30 nbx 5 14 0 1 0 0 1002-melody2:organ/1-adsr/attack 1002-melody2:organ/1-adsr/attack
empty 0 -6 0 10 -262144 -1 -1 0.01 256;
#X obj 10 60 hsl 128 15 0 1 0 0 1002-melody2:organ/1-adsr/decay 1002-melody2:organ/1-adsr/decay
decay -2 -6 0 10 -262144 -1 -1 3810 1;
#X obj 160 60 nbx 5 14 0 1 0 0 1002-melody2:organ/1-adsr/decay 1002-melody2:organ/1-adsr/decay
empty 0 -6 0 10 -262144 -1 -1 0.3 256;
#X obj 10 90 hsl 128 15 0 1 0 0 1002-melody2:organ/1-adsr/release 1002-melody2:organ/1-adsr/release
release -2 -6 0 10 -262144 -1 -1 2540 1;
#X obj 160 90 nbx 5 14 0 1 0 0 1002-melody2:organ/1-adsr/release 1002-melody2:organ/1-adsr/release
empty 0 -6 0 10 -262144 -1 -1 0.2 256;
#X obj 10 120 hsl 128 15 0 1 0 0 1002-melody2:organ/1-adsr/sustain
1002-melody2:organ/1-adsr/sustain sustain -2 -6 0 10 -262144 -1 -1
6350 1;
#X obj 160 120 nbx 5 14 0 1 0 0 1002-melody2:organ/1-adsr/sustain 1002-melody2:organ/1-adsr/sustain
empty 0 -6 0 10 -262144 -1 -1 0.5 256;
#X obj 10 150 hsl 128 15 0 1 0 0 1002-melody2:organ/2-master/pan 1002-melody2:organ/2-master/pan
pan -2 -6 0 10 -262144 -1 -1 6350 1;
#X obj 160 150 nbx 5 14 0 1 0 0 1002-melody2:organ/2-master/pan 1002-melody2:organ/2-master/pan
empty 0 -6 0 10 -262144 -1 -1 0.5 256;
#X obj 10 180 hsl 128 15 0 10 0 0 1002-melody2:organ/2-master/vol 1002-melody2:organ/2-master/vol
vol -2 -6 0 10 -262144 -1 -1 381 1;
#X obj 160 180 nbx 5 14 0 10 0 0 1002-melody2:organ/2-master/vol 1002-melody2:organ/2-master/vol
empty 0 -6 0 10 -262144 -1 -1 0.3 256;
#X obj 10 210 hsl 128 15 0 3 0 0 1002-melody2:organ/amp1 1002-melody2:organ/amp1
amp1 -2 -6 0 10 -262144 -1 -1 4233 1;
#X obj 160 210 nbx 5 14 0 3 0 0 1002-melody2:organ/amp1 1002-melody2:organ/amp1
empty 0 -6 0 10 -262144 -1 -1 1 256;
#X obj 10 240 hsl 128 15 0 3 0 0 1002-melody2:organ/amp2 1002-melody2:organ/amp2
amp2 -2 -6 0 10 -262144 -1 -1 2117 1;
#X obj 160 240 nbx 5 14 0 3 0 0 1002-melody2:organ/amp2 1002-melody2:organ/amp2
empty 0 -6 0 10 -262144 -1 -1 0.5 256;
#X obj 10 270 hsl 128 15 0 3 0 0 1002-melody2:organ/amp3 1002-melody2:organ/amp3
amp3 -2 -6 0 10 -262144 -1 -1 1058 1;
#X obj 160 270 nbx 5 14 0 3 0 0 1002-melody2:organ/amp3 1002-melody2:organ/amp3
empty 0 -6 0 10 -262144 -1 -1 0.25 256;
#X obj 177 3 tgl 15 1 1002-melody2:record 1002-melody2:record empty
0 -6 0 10 -233017 -1 -1 0 1;
#X obj 197 3 bng 15 250 50 1 1002-melody2:init 1002-melody2:init empty
0 -6 0 10 -262144 -1 -1;
#X obj 217 3 tgl 15 1 1002-melody2:active 1002-melody2:active empty
0 -6 0 10 -262144 -1 -1 1 1;
#X coords 0 -1 1 1 235 300 1 0 0;
#X restore 492 16 pd \$0-melody2;
#X obj 22 187 midiosc bouree;
#X obj 22 356 fsynth~ karplus "\$0-guitar" 0x5 8;
#X obj 22 331 fsynth~ bass "\$0-bass" 0x000004 3;
#X obj 22 305 fsynth~ organ "\$0-melody2" 0x02 3;
#X obj 22 279 fsynth~ organ "\$0-melody" 0x003 3;
#X obj 22 409 fdsp~ chorus "\$0-fx1" 0x000000001;
#X obj 22 440 fdsp~ freeverb "\$0-fx2" 0x0000001;
#X obj 22 469 fdsp~ amp "\$0-fx3" 0x000000000001;
#X connect 0 0 2 0;
#X connect 13 0 14 0;
#X connect 13 0 15 0;
#X connect 13 0 16 0;
#X connect 13 0 17 0;
#X connect 13 0 18 0;
#X connect 13 0 19 0;
#X connect 13 0 20 0;
#X connect 14 1 18 1;
#X connect 14 2 18 2;
#X connect 15 1 18 1;
#X connect 15 2 18 2;
#X connect 16 1 18 1;
#X connect 16 2 18 2;
#X connect 17 1 18 1;
#X connect 17 2 18 2;
#X connect 18 1 19 1;
#X connect 18 2 19 2;
#X connect 19 1 20 1;
#X connect 19 2 20 2;
#X connect 20 1 3 0;
#X connect 20 2 3 1;
