#N canvas 340 83 547 603 10;
#N canvas 0 0 450 300 (subpatch) 0;
#X array scope 1764 float 2;
#X coords 0 1 1764 -1 201 143 1 0 0;
#X restore 13 62 graph;
#X obj 13 491 tgl 30 0 empty play empty 17 7 0 10 -203904 -1 -1 1 1
;
#X obj 93 550 faust-remote;
#X msg 13 531 \; on \$1 \; pd dsp \$1;
#X obj 13 322 bng 15 250 50 0 empty empty empty 17 7 0 10 -262144 -1
-1;
#X obj 13 451 print;
#N canvas 2 52 450 300 synth 0;
#X obj 10 30 hradio 15 1 0 5 synth:Nonlinear-Filter/typeMod synth:Nonlinear-Filter/typeMod
typeMod 0 -6 0 10 -262144 -1 -1 0;
#X obj 10 60 hsl 128 15 0 1 0 0 synth:Nonlinearity synth:Nonlinearity
Nonlinearity -2 -6 0 10 -262144 -1 -1 0 1;
#X obj 160 60 nbx 5 14 0 1 0 0 synth:Nonlinearity synth:Nonlinearity
empty 0 -6 0 10 -262144 -1 -1 0 256;
#X obj 10 90 hsl 128 15 0 1 0 0 synth:Reverb/reverbGain synth:Reverb/reverbGain
reverbGain -2 -6 0 10 -262144 -1 -1 2175 1;
#X obj 160 90 nbx 5 14 0 1 0 0 synth:Reverb/reverbGain synth:Reverb/reverbGain
empty 0 -6 0 10 -262144 -1 -1 0.17126 256;
#X obj 10 120 hsl 128 15 0.01 2 0 0 synth:Reverb/roomSize synth:Reverb/roomSize
roomSize -2 -6 0 10 -262144 -1 -1 4531 1;
#X obj 160 120 nbx 5 14 0.01 2 0 0 synth:Reverb/roomSize synth:Reverb/roomSize
empty 0 -6 0 10 -262144 -1 -1 0.72 256;
#X obj 10 150 hsl 128 15 0 1 0 0 synth:Spat/pan-angle synth:Spat/pan-angle
pan-angle -2 -6 0 10 -262144 -1 -1 7620 1;
#X obj 160 150 nbx 5 14 0 1 0 0 synth:Spat/pan-angle synth:Spat/pan-angle
empty 0 -6 0 10 -262144 -1 -1 0.6 256;
#X obj 10 180 hsl 128 15 0 1 0 0 synth:Spat/spatial-width synth:Spat/spatial-width
spatial-width -2 -6 0 10 -262144 -1 -1 11250 1;
#X obj 160 180 nbx 5 14 0 1 0 0 synth:Spat/spatial-width synth:Spat/spatial-width
empty 0 -6 0 10 -262144 -1 -1 0.885827 256;
#X obj 10 210 hsl 128 15 0 1 0 0 synth:brightness synth:brightness
brightness -2 -6 0 10 -262144 -1 -1 11150 1;
#X obj 160 210 nbx 5 14 0 1 0 0 synth:brightness synth:brightness empty
0 -6 0 10 -262144 -1 -1 0.877953 256;
#X obj 10 240 hsl 128 15 0 10 0 0 synth:decaytime-T60 synth:decaytime-T60
decaytime-T60 -2 -6 0 10 -262144 -1 -1 1680 1;
#X obj 160 240 nbx 5 14 0 10 0 0 synth:decaytime-T60 synth:decaytime-T60
empty 0 -6 0 10 -262144 -1 -1 1.32283 256;
#X obj 10 270 hsl 128 15 -60 0 0 0 synth:dynamic-level synth:dynamic-level
dynamic-level -2 -6 0 10 -262144 -1 -1 10583 1;
#X obj 160 270 nbx 5 14 -60 0 0 0 synth:dynamic-level synth:dynamic-level
empty 0 -6 0 10 -262144 -1 -1 -10 256;
#X obj 10 300 hsl 128 15 20 1000 0 0 synth:freqMod synth:freqMod freqMod
-2 -6 0 10 -262144 -1 -1 2592 1;
#X obj 160 300 nbx 5 14 20 1000 0 0 synth:freqMod synth:freqMod empty
0 -6 0 10 -262144 -1 -1 220 256;
#X obj 10 330 hsl 128 15 0 0.9 0 0 synth:pick-angle synth:pick-angle
pick-angle -2 -6 0 10 -262144 -1 -1 12200 1;
#X obj 160 330 nbx 5 14 0 0.9 0 0 synth:pick-angle synth:pick-angle
empty 0 -6 0 10 -262144 -1 -1 0.864567 256;
#X obj 10 360 hsl 128 15 0.02 0.5 0 0 synth:pick-position synth:pick-position
pick-position -2 -6 0 10 -262144 -1 -1 2910 1;
#X obj 160 360 nbx 5 14 0.02 0.5 0 0 synth:pick-position synth:pick-position
empty 0 -6 0 10 -262144 -1 -1 0.13 256;
#X obj 177 3 tgl 15 1 synth:record synth:record empty 0 -6 0 10 -233017
-1 -1 0 1;
#X obj 197 3 bng 15 250 50 1 synth:init synth:init empty 0 -6 0 10
-262144 -1 -1;
#X obj 217 3 tgl 15 1 synth:active synth:active empty 0 -6 0 10 -262144
-1 -1 1 1;
#X coords 0 -1 1 1 235 390 1 0 0;
#X restore 265 37 pd synth;
#N canvas 550 495 450 300 audio 0;
#X obj 140 28 tgl 15 0 empty on empty 17 7 0 10 -262144 -1 -1 1 1;
#X obj 140 53 metro 40;
#X obj 140 80 tabwrite~ scope;
#X obj 52 79 dac~;
#X obj 19 53 inlet~;
#X obj 74 53 inlet~;
#X connect 0 0 1 0;
#X connect 1 0 2 0;
#X connect 4 0 3 0;
#X connect 5 0 3 1;
#X connect 5 0 2 0;
#X restore 56 451 pd audio;
#X text 35 321 print controls;
#X text 57 498 audio on/off;
#X obj 13 400 fsynth~ NLFeks synth 0 8;
#X msg 13 345 write;
#X text 55 344 write controls -> midi \, osc;
#X obj 13 212 midiosc "turkish-march.mid";
#X obj 49 376 bng 15 250 50 0 reload empty empty 17 7 0 10 -262144
-1 -1;
#N canvas 5 78 450 300 amp 0;
#X obj 10 30 nbx 5 14 -20 20 0 0 amp:amp/0-amp/1-tone/bass amp:amp/0-amp/1-tone/bass
bass 0 -6 0 10 -262144 -1 -1 0 256;
#X obj 85 30 nbx 5 14 -20 20 0 0 amp:amp/0-amp/1-tone/treble amp:amp/0-amp/1-tone/treble
treble 0 -6 0 10 -262144 -1 -1 0 256;
#X obj 160 30 nbx 5 14 -96 10 0 0 amp:amp/0-amp/2-gain/gain amp:amp/0-amp/2-gain/gain
gain 0 -6 0 10 -262144 -1 -1 10 256;
#X obj 10 60 hsl 128 15 -1 1 0 0 amp:amp/3-balance/balance amp:amp/3-balance/balance
balance -2 -6 0 10 -262144 -1 -1 6350 1;
#X obj 160 60 nbx 5 14 -1 1 0 0 amp:amp/3-balance/balance amp:amp/3-balance/balance
empty 0 -6 0 10 -262144 -1 -1 0 256;
#X obj 10 90 hsl 128 15 -96 10 0 0 amp:amp/4-meter/left amp:amp/4-meter/left
left -2 -6 0 10 -233017 -1 -1 8291 1;
#X obj 160 90 nbx 5 14 -96 10 0 0 amp:amp/4-meter/left amp:amp/4-meter/left
empty 0 -6 0 10 -233017 -1 -1 -26.8003 256;
#X obj 10 120 hsl 128 15 -96 10 0 0 amp:amp/4-meter/right amp:amp/4-meter/right
right -2 -6 0 10 -233017 -1 -1 8642 1;
#X obj 160 120 nbx 5 14 -96 10 0 0 amp:amp/4-meter/right amp:amp/4-meter/right
empty 0 -6 0 10 -233017 -1 -1 -23.8698 256;
#X obj 177 3 tgl 15 1 amp:record amp:record empty 0 -6 0 10 -233017
-1 -1 0 1;
#X obj 197 3 bng 15 250 50 1 amp:init amp:init empty 0 -6 0 10 -262144
-1 -1;
#X obj 217 3 tgl 15 1 amp:active amp:active empty 0 -6 0 10 -262144
-1 -1 1 1;
#X coords 0 -1 1 1 235 150 1 0 0;
#X restore 265 433 pd amp;
#X obj 13 426 fdsp~ amp amp 0;
#X text 69 374 reload the Faust modules;
#X obj 15 11 fsynth~;
#X obj 74 11 fdsp~;
#X text 121 4 Run Faust dsps in Pd. Please see the included README
file or the pd-faust manual for more information.;
#X connect 1 0 3 0;
#X connect 4 0 10 0;
#X connect 4 0 16 0;
#X connect 10 0 5 0;
#X connect 10 1 16 1;
#X connect 10 2 16 2;
#X connect 11 0 10 0;
#X connect 11 0 16 0;
#X connect 13 0 10 0;
#X connect 13 0 16 0;
#X connect 16 0 5 0;
#X connect 16 1 7 0;
#X connect 16 2 7 1;
