#N canvas 281 155 450 300 10;
#X obj 22 51 inlet;
#X obj 22 131 ctlout;
#X obj 58 151 noteout;
#X obj 94 129 polytouchout;
#X obj 131 151 pgmout;
#X obj 178 128 bendout;
#X obj 203 149 touchout;
#X msg 240 126 250;
#X msg 276 125 251;
#X msg 312 125 252;
#X obj 240 200 midiout;
#X text 25 9 This is a little helper patch which decodes MIDI messages
in a symbolic format used by some pd-pure plugins.;
#X obj 22 76 route ctl note polytouch pgm bend touch start cont stop
sysex, f 61;
#X obj 348 101 list prepend 240;
#X obj 348 123 list append 247;
#X obj 348 214 list split 1;
#X obj 348 167 until;
#X obj 348 145 t b l;
#X obj 389 167 bang;
#X obj 348 190 list;
#X connect 0 0 12 0;
#X connect 7 0 10 0;
#X connect 8 0 10 0;
#X connect 9 0 10 0;
#X connect 12 0 1 0;
#X connect 12 1 2 0;
#X connect 12 2 3 0;
#X connect 12 3 4 0;
#X connect 12 4 5 0;
#X connect 12 5 6 0;
#X connect 12 6 7 0;
#X connect 12 7 8 0;
#X connect 12 8 9 0;
#X connect 12 9 13 0;
#X connect 13 0 14 0;
#X connect 14 0 17 0;
#X connect 15 0 10 0;
#X connect 15 1 19 1;
#X connect 15 2 18 0;
#X connect 16 0 19 0;
#X connect 17 0 16 0;
#X connect 17 1 19 1;
#X connect 18 0 16 1;
#X connect 19 0 15 0;
