#N canvas 398 313 603 547 10;
#X obj 16 374 notein;
#X obj 16 403 pack f f f;
#X msg 16 431 note \$1 \$2 \$3;
#X obj 16 485 outlet;
#X obj 17 284 t a a;
#X obj 84 352 route note polytouch ctl pgm touch bend;
#X obj 84 373 noteout;
#X obj 122 393 polytouchout;
#X obj 161 373 ctlout;
#X obj 199 393 pgmout;
#X obj 238 373 touchout;
#X obj 277 393 bendout;
#X obj 84 300 spigot;
#X text 131 299 MIDI Thru;
#X obj 117 427 bendin;
#X obj 117 448 pack f f;
#X msg 117 469 bend \$1 \$2;
#X obj 196 427 ctlin;
#X obj 196 448 pack f f f;
#X msg 196 469 ctl \$1 \$2 \$3;
#X obj 84 326 r midiout;
#X obj 429 323 r oscout;
#X obj 429 409 print oscout;
#X obj 462 365 tgl 15 0 empty empty print 17 7 0 10 -262144 -1 -1 0
1;
#X obj 429 387 spigot;
#X text 432 286 OSC output;
#X text 414 299 NOT IMPLEMENTED YET;
#X msg 17 162 start;
#X msg 66 162 stop;
#X msg 108 162 continue;
#X text 59 95 MIDI sequencer;
#X obj 152 224 spigot;
#X obj 152 245 print midiseq;
#X text 205 223 print midi msgs;
#X msg 178 162 loop \$1;
#X obj 17 178 t a;
#X obj 7 21 bng 15 250 50 0 \$0-start \$0-start start 17 7 0 10 -204786
-1 -1;
#X obj 57 21 bng 15 250 50 0 \$0-stop \$0-stop stop 17 7 0 10 -261234
-1 -1;
#X obj 109 21 bng 15 250 50 0 \$0-cont \$0-cont cont 17 7 0 10 -203904
-1 -1;
#X obj 160 62 tgl 15 0 \$0-loop \$0-loop loop 17 7 0 10 -262144 -1
-1 0 1;
#X obj 160 21 tgl 15 0 \$0-print-midi \$0-print-midi echo 17 7 0 10
-262144 -1 -1 0 1;
#X obj 109 62 tgl 15 0 \$0-thru \$0-thru thru 17 7 0 10 -262144 -1
-1 0 1;
#X obj 178 138 r \$0-loop;
#X obj 117 273 r \$0-thru;
#X obj 108 138 r \$0-cont;
#X obj 66 116 r \$0-stop;
#X obj 17 138 r \$0-start;
#X obj 17 208 midiseq \$1;
#X msg 299 469 write \$1;
#X obj 299 445 r \$0-write;
#X text 246 484 write controls -> MIDI/OSC;
#X obj 192 4 tgl 15 0 \$0-rec \$0-rec empty 17 7 0 10 -228856 -1 -1
0 1;
#X text 356 95 OSC sequencer;
#X msg 307 162 stop;
#X obj 442 224 spigot;
#X obj 307 178 t a;
#X obj 307 116 r \$0-stop;
#X text 495 223 print osc msgs;
#X obj 442 245 print oscseq;
#X obj 416 116 r \$0-abort;
#X obj 459 138 r \$0-clear;
#X msg 416 162 abort;
#X msg 459 162 clear;
#X obj 380 192 r oscrecord;
#X obj 307 234 s oscplay;
#X obj 57 41 bng 15 250 50 0 \$0-abort \$0-abort abort 17 7 0 10 -261234
-1 -1;
#X obj 109 41 bng 15 250 50 0 \$0-clear \$0-clear clear 17 7 0 10 -203904
-1 -1;
#X obj 57 62 tgl 15 0 \$0-write \$0-write write 17 7 0 10 -262144 -1
-1 0 1;
#X obj 348 138 r \$0-rec;
#X msg 348 162 record \$1;
#X obj 130 116 r \$0-abort;
#X msg 528 162 save;
#X obj 307 208 oscseq \$1;
#X obj 7 41 bng 15 250 50 0 \$0-save \$0-save save 17 7 0 10 -262130
-1 -1;
#X obj 528 116 r \$0-save;
#X text 4 60 MIDI OUT;
#X obj 160 41 tgl 15 0 \$0-print-osc \$0-print-osc echo 17 7 0 10 -262144
-1 -1 0 1;
#X obj 185 196 r \$0-print-midi;
#X obj 475 196 r \$0-print-osc;
#X obj 429 469 r myoscinput;
#X text 413 445 NOT IMPLEMENTED YET;
#X text 431 432 OSC input;
#X obj 429 344 s myoscoutput;
#X connect 0 0 1 0;
#X connect 0 1 1 1;
#X connect 0 2 1 2;
#X connect 1 0 2 0;
#X connect 2 0 3 0;
#X connect 4 0 3 0;
#X connect 4 1 12 0;
#X connect 5 0 6 0;
#X connect 5 1 7 0;
#X connect 5 2 8 0;
#X connect 5 3 9 0;
#X connect 5 4 10 0;
#X connect 5 5 11 0;
#X connect 12 0 5 0;
#X connect 14 0 15 0;
#X connect 14 1 15 1;
#X connect 15 0 16 0;
#X connect 16 0 3 0;
#X connect 17 0 18 0;
#X connect 17 1 18 1;
#X connect 17 2 18 2;
#X connect 18 0 19 0;
#X connect 19 0 3 0;
#X connect 20 0 5 0;
#X connect 21 0 24 0;
#X connect 21 0 82 0;
#X connect 23 0 24 1;
#X connect 24 0 22 0;
#X connect 27 0 35 0;
#X connect 28 0 35 0;
#X connect 29 0 35 0;
#X connect 31 0 32 0;
#X connect 34 0 35 0;
#X connect 35 0 47 0;
#X connect 42 0 34 0;
#X connect 43 0 12 1;
#X connect 44 0 29 0;
#X connect 45 0 28 0;
#X connect 46 0 27 0;
#X connect 47 0 31 0;
#X connect 47 0 4 0;
#X connect 48 0 3 0;
#X connect 49 0 48 0;
#X connect 53 0 55 0;
#X connect 54 0 58 0;
#X connect 55 0 72 0;
#X connect 56 0 53 0;
#X connect 59 0 61 0;
#X connect 60 0 62 0;
#X connect 61 0 55 0;
#X connect 62 0 55 0;
#X connect 63 0 72 0;
#X connect 68 0 69 0;
#X connect 69 0 55 0;
#X connect 70 0 28 0;
#X connect 71 0 55 0;
#X connect 72 0 54 0;
#X connect 72 0 64 0;
#X connect 74 0 71 0;
#X connect 77 0 31 1;
#X connect 78 0 54 1;
#X connect 79 0 3 0;
#X coords 0 -1 1 1 210 80 1 0 0;
