#N canvas 322 100 674 582 10;
#X obj 17 528 outlet;
#X obj 470 428 r oscout;
#X obj 470 514 print oscout;
#X obj 503 470 tgl 15 0 empty empty print 17 7 0 10 -262144 -1 -1 0
1;
#X obj 470 492 spigot;
#X text 473 391 OSC output;
#X text 455 404 NOT IMPLEMENTED YET;
#X msg 17 205 start;
#X msg 66 205 stop;
#X msg 108 205 continue;
#X text 59 138 MIDI sequencer;
#X obj 152 267 spigot;
#X obj 152 288 print midiseq;
#X text 205 266 print midi msgs;
#X msg 178 205 loop \$1;
#X obj 17 221 t a;
#X obj 7 21 bng 15 250 50 0 \$0-start \$0-start start 17 7 0 10 -204786
-1 -1;
#X obj 57 21 bng 15 250 50 0 \$0-stop \$0-stop stop 17 7 0 10 -261234
-1 -1;
#X obj 109 21 bng 15 250 50 0 \$0-cont \$0-cont cont 17 7 0 10 -203904
-1 -1;
#X obj 160 62 tgl 15 0 \$0-loop \$0-loop loop 17 7 0 10 -262144 -1
-1 0 1;
#X obj 160 21 tgl 15 0 \$0-print-midi \$0-print-midi midi 17 7 0 10
-262144 -1 -1 0 1;
#X obj 109 62 tgl 15 0 \$0-thru \$0-thru thru 17 7 0 10 -262144 -1
-1 0 1;
#X obj 178 181 r \$0-loop;
#X obj 56 286 r \$0-thru;
#X obj 108 181 r \$0-cont;
#X obj 66 159 r \$0-stop;
#X obj 17 181 r \$0-start;
#X msg 56 512 write \$1;
#X obj 56 488 r \$0-write;
#X text 41 466 write controls -> MIDI/OSC;
#X obj 192 4 tgl 15 0 \$0-rec \$0-rec empty 17 7 0 10 -228856 -1 -1
0 1;
#X text 423 134 OSC sequencer;
#X msg 321 205 stop;
#X obj 456 292 spigot;
#X obj 321 221 t a;
#X obj 321 159 r \$0-stop;
#X text 509 291 print osc msgs;
#X obj 430 159 r \$0-abort;
#X obj 473 181 r \$0-clear;
#X msg 430 205 abort;
#X msg 473 205 clear;
#X obj 394 235 r oscrecord;
#X obj 420 346 s oscplay;
#X obj 57 41 bng 15 250 50 0 \$0-abort \$0-abort abort 17 7 0 10 -261234
-1 -1;
#X obj 109 41 bng 15 250 50 0 \$0-clear \$0-clear clear 17 7 0 10 -203904
-1 -1;
#X obj 57 62 tgl 15 0 \$0-write \$0-write write 17 7 0 10 -262144 -1
-1 0 1;
#X obj 362 181 r \$0-rec;
#X msg 362 205 record \$1;
#X obj 130 159 r \$0-abort;
#X msg 542 205 save;
#X obj 7 41 bng 15 250 50 0 \$0-save \$0-save save 17 7 0 10 -262130
-1 -1;
#X obj 542 159 r \$0-save;
#X obj 160 41 tgl 15 0 \$0-print-osc \$0-print-osc osc 17 7 0 10 -262144
-1 -1 0 1;
#X obj 185 239 r \$0-print-midi;
#X obj 489 264 r \$0-print-osc;
#X obj 319 512 r myoscinput;
#X text 303 488 NOT IMPLEMENTED YET;
#X text 321 475 OSC input;
#X obj 470 449 s myoscoutput;
#X obj 56 356 r reload;
#X obj 71 420 r \$0-write;
#X obj 56 441 f;
#X obj 56 377 t b;
#X obj 56 398 del 100;
#X obj 321 251 oscseq \$1 \$2;
#X obj 172 4 bng 15 250 50 0 \$0-bang \$0-bang empty 17 7 0 10 -262144
-1 -1;
#X obj 321 137 r \$0-bang;
#X text 261 2 time display;
#X obj 7 81 hsl 140 15 0 1 0 0 \$0-pos \$0-progress empty -2 -8 0 10
-262144 -1 -1 0 1;
#X obj 153 82 nbx 5 14 0 1e+37 0 0 \$0-time \$0-time empty 0 -8 0 10
-262144 -1 -1 0 256;
#X obj 17 251 midiseq \$1;
#X obj 94 235 loadbang;
#X msg 242 205 offset \$1;
#X obj 242 181 r \$0-offset;
#N canvas 380 322 450 346 sysex 0;
#X obj 18 25 sysexin;
#X obj 18 55 sel 240;
#X msg 18 79 1;
#X obj 18 176 tgl 15 0 empty empty empty 17 7 0 10 -262144 -1 -1 0
1;
#X obj 57 80 spigot;
#X obj 57 107 moses 128;
#X msg 108 160 0;
#X obj 57 220 list prepend;
#X obj 147 236 t l;
#X obj 18 198 swap 1;
#X obj 18 220 -;
#X obj 18 245 tgl 15 0 empty empty empty 17 7 0 10 -262144 -1 -1 0
1;
#X obj 57 261 spigot;
#X obj 108 132 t b b b;
#X obj 57 288 s sysex;
#X connect 0 0 1 0;
#X connect 1 0 2 0;
#X connect 1 1 4 0;
#X connect 2 0 3 0;
#X connect 3 0 4 1;
#X connect 3 0 9 0;
#X connect 4 0 5 0;
#X connect 5 0 7 0;
#X connect 5 1 13 0;
#X connect 6 0 3 0;
#X connect 7 0 8 0;
#X connect 7 0 12 0;
#X connect 8 0 7 1;
#X connect 9 0 10 0;
#X connect 9 1 10 1;
#X connect 10 0 11 0;
#X connect 11 0 12 1;
#X connect 12 0 14 0;
#X connect 13 0 7 1;
#X connect 13 1 7 0;
#X connect 13 2 6 0;
#X restore 413 51 pd sysex;
#X text 403 25 sysex / MMC support;
#X obj 301 53 s \$0-progress;
#X obj 278 72 s \$0-time;
#X obj 256 93 s \$0-offset;
#N canvas 568 317 395 521 timer 0;
#X obj 113 13 r timer;
#X obj 113 35 route stop offset;
#X obj 113 105 t b b;
#X obj 162 148 tgl 15 0 empty empty empty 17 7 0 10 -262144 -1 -1 0
1;
#X msg 162 121 0;
#X msg 113 126 0;
#X obj 212 142 f;
#X obj 212 117 max 0;
#X floatatom 162 327 5 0 0 0 - - -;
#X obj 162 205 f;
#X obj 197 252 max;
#X obj 162 228 t f f;
#X obj 162 298 /;
#X obj 197 273 max 1;
#X obj 162 174 metro 100;
#X obj 193 205 + 100;
#X obj 100 271 / 100;
#X obj 100 298 int;
#X obj 100 327 / 10;
#X obj 228 174 s \$0-len;
#X obj 18 235 *;
#X obj 82 198 r \$0-len;
#X obj 18 198 r \$0-pos;
#X obj 51 271 swap 1;
#X obj 51 294 -;
#X obj 51 319 tgl 15 0 empty empty empty 17 7 0 10 -262144 -1 -1 1
1;
#X obj 18 343 spigot;
#X obj 51 227 loadbang;
#X msg 51 248 0;
#X obj -17 271 r \$0-time;
#X obj -17 294 * 1000;
#X obj 18 408 outlet;
#X obj 100 409 outlet;
#X obj 162 408 outlet;
#X obj 162 57 route 1 0;
#X obj 162 79 t b f;
#X msg 162 100 1;
#X connect 0 0 1 0;
#X connect 1 0 2 0;
#X connect 1 1 34 0;
#X connect 1 2 7 0;
#X connect 2 0 5 0;
#X connect 2 1 4 0;
#X connect 3 0 14 0;
#X connect 3 0 23 0;
#X connect 4 0 3 0;
#X connect 5 0 9 1;
#X connect 5 0 6 1;
#X connect 6 0 7 1;
#X connect 6 0 10 1;
#X connect 6 0 19 0;
#X connect 7 0 6 0;
#X connect 8 0 33 0;
#X connect 9 0 11 0;
#X connect 9 0 15 0;
#X connect 10 0 13 0;
#X connect 11 0 12 0;
#X connect 11 0 16 0;
#X connect 11 1 10 0;
#X connect 12 0 8 0;
#X connect 13 0 12 1;
#X connect 14 0 9 0;
#X connect 15 0 9 1;
#X connect 16 0 17 0;
#X connect 17 0 18 0;
#X connect 18 0 32 0;
#X connect 20 0 16 0;
#X connect 20 0 26 0;
#X connect 21 0 20 1;
#X connect 22 0 20 0;
#X connect 23 0 24 0;
#X connect 23 1 24 1;
#X connect 24 0 25 0;
#X connect 25 0 26 1;
#X connect 26 0 31 0;
#X connect 27 0 28 0;
#X connect 28 0 23 0;
#X connect 29 0 30 0;
#X connect 30 0 26 0;
#X connect 34 0 35 0;
#X connect 34 1 9 0;
#X connect 35 0 36 0;
#X connect 35 1 9 1;
#X connect 36 0 3 0;
#X restore 256 28 pd timer;
#N canvas 393 355 450 300 midi 0;
#X obj 15 132 notein;
#X obj 15 161 pack f f f;
#X msg 15 189 note \$1 \$2 \$3;
#X obj 15 243 outlet;
#X obj 16 42 t a a;
#X obj 83 110 route note polytouch ctl pgm touch bend;
#X obj 83 131 noteout;
#X obj 121 151 polytouchout;
#X obj 160 131 ctlout;
#X obj 198 151 pgmout;
#X obj 237 131 touchout;
#X obj 276 151 bendout;
#X obj 83 58 spigot;
#X text 130 57 MIDI Thru;
#X obj 116 185 bendin;
#X obj 116 206 pack f f;
#X msg 116 227 bend \$1 \$2;
#X obj 195 185 ctlin;
#X obj 195 206 pack f f f;
#X msg 195 227 ctl \$1 \$2 \$3;
#X obj 83 84 r midiout;
#X obj 116 31 inlet;
#X obj 16 14 inlet;
#X connect 0 0 1 0;
#X connect 0 1 1 1;
#X connect 0 2 1 2;
#X connect 1 0 2 0;
#X connect 2 0 3 0;
#X connect 4 0 3 0;
#X connect 4 1 12 0;
#X connect 5 0 6 0;
#X connect 5 1 7 0;
#X connect 5 2 8 0;
#X connect 5 3 9 0;
#X connect 5 4 10 0;
#X connect 5 5 11 0;
#X connect 12 0 5 0;
#X connect 14 0 15 0;
#X connect 14 1 15 1;
#X connect 15 0 16 0;
#X connect 16 0 3 0;
#X connect 17 0 18 0;
#X connect 17 1 18 1;
#X connect 17 2 18 2;
#X connect 18 0 19 0;
#X connect 19 0 3 0;
#X connect 20 0 5 0;
#X connect 21 0 12 1;
#X connect 22 0 4 0;
#X restore 17 314 pd midi;
#X obj 7 62 bng 15 250 50 0 \$0-send \$0-send send 17 7 0 10 -262144
-1 -1;
#X msg 586 205 send;
#X obj 586 181 r \$0-send;
#X obj 321 276 route record bang;
#X obj 456 314 print oscseq;
#X msg 370 330 bang;
#X obj 321 307 s \$0-rec;
#X connect 1 0 4 0;
#X connect 1 0 58 0;
#X connect 3 0 4 1;
#X connect 4 0 2 0;
#X connect 7 0 15 0;
#X connect 8 0 15 0;
#X connect 9 0 15 0;
#X connect 11 0 12 0;
#X connect 14 0 15 0;
#X connect 15 0 70 0;
#X connect 22 0 14 0;
#X connect 23 0 80 1;
#X connect 24 0 9 0;
#X connect 25 0 8 0;
#X connect 26 0 7 0;
#X connect 27 0 0 0;
#X connect 28 0 27 0;
#X connect 32 0 34 0;
#X connect 33 0 85 0;
#X connect 34 0 64 0;
#X connect 35 0 32 0;
#X connect 37 0 39 0;
#X connect 38 0 40 0;
#X connect 39 0 34 0;
#X connect 40 0 34 0;
#X connect 41 0 64 0;
#X connect 46 0 47 0;
#X connect 47 0 34 0;
#X connect 48 0 8 0;
#X connect 49 0 34 0;
#X connect 51 0 49 0;
#X connect 53 0 11 1;
#X connect 54 0 33 1;
#X connect 55 0 0 0;
#X connect 59 0 62 0;
#X connect 60 0 61 1;
#X connect 61 0 27 0;
#X connect 62 0 63 0;
#X connect 63 0 61 0;
#X connect 64 0 84 0;
#X connect 66 0 64 0;
#X connect 70 0 11 0;
#X connect 70 0 80 0;
#X connect 71 0 70 0;
#X connect 72 0 15 0;
#X connect 72 0 34 0;
#X connect 73 0 72 0;
#X connect 79 0 78 0;
#X connect 79 1 77 0;
#X connect 79 2 76 0;
#X connect 80 0 0 0;
#X connect 82 0 34 0;
#X connect 83 0 82 0;
#X connect 84 0 87 0;
#X connect 84 1 86 0;
#X connect 84 2 33 0;
#X connect 84 2 42 0;
#X connect 86 0 42 0;
#X coords 0 -1 1 1 210 100 1 0 0;
