#N canvas 310 337 692 360 10;
#X obj 32 182 midi-input;
#X obj 102 310 dac~;
#X msg 32 122 reload;
#N canvas 852 209 450 300 synth 0;
#X obj 10 30 hsl 128 15 0 1 0 0 synth:subtractive/pan synth:subtractive/pan
pan -2 -6 0 10 -262144 -1 -1 0 1;
#X obj 160 30 nbx 5 14 0 1 0 0 synth:subtractive/pan synth:subtractive/pan
empty 0 -6 0 10 -262144 -1 -1 0 256 0;
#X obj 10 60 hsl 128 15 0 1 0 0 synth:subtractive/vol synth:subtractive/vol
vol -2 -6 0 10 -262144 -1 -1 0 1;
#X obj 160 60 nbx 5 14 0 1 0 0 synth:subtractive/vol synth:subtractive/vol
empty 0 -6 0 10 -262144 -1 -1 0 256 0;
#X obj 10 90 hsl 128 15 1 20 0 0 synth:subtractive/cutoff synth:subtractive/cutoff
cutoff -2 -6 0 10 -262144 -1 -1 0 1;
#X obj 160 90 nbx 5 14 1 20 0 0 synth:subtractive/cutoff synth:subtractive/cutoff
empty 0 -6 0 10 -262144 -1 -1 1 256 0;
#X obj 10 120 hsl 128 15 0 20 0 0 synth:subtractive/res synth:subtractive/res
res -2 -6 0 10 -262144 -1 -1 0 1;
#X obj 160 120 nbx 5 14 0 20 0 0 synth:subtractive/res synth:subtractive/res
empty 0 -6 0 10 -262144 -1 -1 0 256 0;
#X obj 10 150 hsl 128 15 0 1 0 0 synth:subtractive/attack synth:subtractive/attack
attack -2 -6 0 10 -262144 -1 -1 0 1;
#X obj 160 150 nbx 5 14 0 1 0 0 synth:subtractive/attack synth:subtractive/attack
empty 0 -6 0 10 -262144 -1 -1 0 256 0;
#X obj 10 180 hsl 128 15 0 1 0 0 synth:subtractive/decay synth:subtractive/decay
decay -2 -6 0 10 -262144 -1 -1 0 1;
#X obj 160 180 nbx 5 14 0 1 0 0 synth:subtractive/decay synth:subtractive/decay
empty 0 -6 0 10 -262144 -1 -1 0 256 0;
#X obj 10 210 hsl 128 15 0 1 0 0 synth:subtractive/sustain synth:subtractive/sustain
sustain -2 -6 0 10 -262144 -1 -1 0 1;
#X obj 160 210 nbx 5 14 0 1 0 0 synth:subtractive/sustain synth:subtractive/sustain
empty 0 -6 0 10 -262144 -1 -1 0 256 0;
#X obj 10 240 hsl 128 15 0 1 0 0 synth:subtractive/release synth:subtractive/release
release -2 -6 0 10 -262144 -1 -1 0 1;
#X obj 160 240 nbx 5 14 0 1 0 0 synth:subtractive/release synth:subtractive/release
empty 0 -6 0 10 -262144 -1 -1 0 256 0;
#X obj 177 3 tgl 15 1 synth:record synth:record empty 0 -6 0 10 -233017
-1 -1 0 1;
#X obj 197 3 bng 15 250 50 1 synth:init synth:init empty 0 -6 0 10
-262144 -1 -1;
#X obj 217 3 tgl 15 1 synth:active synth:active empty 0 -6 0 10 -262144
-1 -1 1 1;
#X coords 0 -1 1 1 235 270 1 0 0;
#X restore 196 18 pd synth;
#N canvas 1 59 450 300 chorus 0;
#X obj 10 30 hsl 128 15 0 0.2 0 0 chorus:chorus/delay chorus:chorus/delay
delay -2 -6 0 10 -262144 -1 -1 0 1;
#X obj 160 30 nbx 5 14 0 0.2 0 0 chorus:chorus/delay chorus:chorus/delay
empty 0 -6 0 10 -262144 -1 -1 0 256 0;
#X obj 10 60 hsl 128 15 0 1 0 0 chorus:chorus/depth chorus:chorus/depth
depth -2 -6 0 10 -262144 -1 -1 0 1;
#X obj 160 60 nbx 5 14 0 1 0 0 chorus:chorus/depth chorus:chorus/depth
empty 0 -6 0 10 -262144 -1 -1 0 256 0;
#X obj 10 90 hsl 128 15 0 10 0 0 chorus:chorus/freq chorus:chorus/freq
freq -2 -6 0 10 -262144 -1 -1 0 1;
#X obj 160 90 nbx 5 14 0 10 0 0 chorus:chorus/freq chorus:chorus/freq
empty 0 -6 0 10 -262144 -1 -1 0 256 0;
#X obj 10 120 hsl 128 15 0 1 0 0 chorus:chorus/level chorus:chorus/level
level -2 -6 0 10 -262144 -1 -1 0 1;
#X obj 160 120 nbx 5 14 0 1 0 0 chorus:chorus/level chorus:chorus/level
empty 0 -6 0 10 -262144 -1 -1 0 256 0;
#X obj 177 3 tgl 15 1 chorus:record chorus:record empty 0 -6 0 10 -233017
-1 -1 0 1;
#X obj 197 3 bng 15 250 50 1 chorus:init chorus:init empty 0 -6 0 10
-262144 -1 -1;
#X obj 217 3 tgl 15 1 chorus:active chorus:active empty 0 -6 0 10 -262144
-1 -1 1 1;
#X coords 0 -1 1 1 235 150 1 0 0;
#X restore 443 18 pd chorus;
#N canvas 1 59 450 300 freeverb 0;
#X obj 10 30 hsl 128 15 0 1 0 0 freeverb:freeverb/damp freeverb:freeverb/damp
damp -2 -6 0 10 -262144 -1 -1 0 1;
#X obj 160 30 nbx 5 14 0 1 0 0 freeverb:freeverb/damp freeverb:freeverb/damp
empty 0 -6 0 10 -262144 -1 -1 0 256 0;
#X obj 10 60 hsl 128 15 0 1 0 0 freeverb:freeverb/roomsize freeverb:freeverb/roomsize
roomsize -2 -6 0 10 -262144 -1 -1 0 1;
#X obj 160 60 nbx 5 14 0 1 0 0 freeverb:freeverb/roomsize freeverb:freeverb/roomsize
empty 0 -6 0 10 -262144 -1 -1 0 256 0;
#X obj 10 90 hsl 128 15 0 1 0 0 freeverb:freeverb/wet freeverb:freeverb/wet
wet -2 -6 0 10 -262144 -1 -1 0 1;
#X obj 160 90 nbx 5 14 0 1 0 0 freeverb:freeverb/wet freeverb:freeverb/wet
empty 0 -6 0 10 -262144 -1 -1 0 256 0;
#X obj 177 3 tgl 15 1 freeverb:record freeverb:record empty 0 -6 0
10 -233017 -1 -1 0 1;
#X obj 197 3 bng 15 250 50 1 freeverb:init freeverb:init empty 0 -6
0 10 -262144 -1 -1;
#X obj 217 3 tgl 15 1 freeverb:active freeverb:active empty 0 -6 0
10 -262144 -1 -1 1 1;
#X coords 0 -1 1 1 235 120 1 0 0;
#X restore 443 172 pd freeverb;
#X obj 32 246 faust~ chorus, f 24;
#X obj 32 278 faust~ freeverb, f 24;
#X obj 17 69 hsl 128 15 0 1 0 0 empty empty empty -2 -8 0 10 -262144
-1 -1 0 1;
#X obj 88 122 bng 15 250 50 0 empty empty empty 17 7 0 10 -262144 -1
-1;
#X obj 32 310 print;
#X obj 32 214 faust~ subtractive synth;
#X msg 14 91 /synth:subtractive/pan \$1;
#X obj 14 23 ctlin 8;
#X obj 14 46 / 127;
#X obj 117 122 tgl 15 0 empty empty empty 17 7 0 10 -262144 -1 -1 0
1;
#X msg 117 142 write \$1;
#X obj 197 298 r midiout;
#X obj 197 321 midi-output;
#X obj 300 321 faust-remote;
#X connect 0 0 11 0;
#X connect 2 0 11 0;
#X connect 6 1 7 1;
#X connect 7 1 1 0;
#X connect 8 0 12 0;
#X connect 9 0 11 0;
#X connect 11 0 10 0;
#X connect 11 1 6 1;
#X connect 12 0 11 0;
#X connect 13 0 14 0;
#X connect 14 0 8 0;
#X connect 15 0 16 0;
#X connect 16 0 11 0;
#X connect 17 0 18 0;
