#N canvas 334 184 771 572 10;
#X obj 514 460 tgl 30 0 empty play empty 17 7 0 10 -203904 -1 -1 0
1;
#X obj 594 519 faust-remote;
#X msg 514 500 \; on \$1 \; pd dsp \$1;
#X obj 22 308 bng 15 250 50 0 empty empty empty 17 7 0 10 -262144 -1
-1;
#X obj 22 520 print;
#N canvas 545 488 450 300 audio 0;
#X obj 140 24 tgl 15 0 empty on empty 17 7 0 10 -262144 -1 -1 0 1;
#X obj 140 53 metro 40;
#X obj 52 99 dac~;
#X obj 19 53 inlet~;
#X obj 74 53 inlet~;
#X obj 140 100 tabwrite~ scope-l;
#X obj 140 80 tabwrite~ scope-r;
#X connect 0 0 1 0;
#X connect 1 0 6 0;
#X connect 1 0 5 0;
#X connect 3 0 2 0;
#X connect 3 0 5 0;
#X connect 4 0 2 1;
#X connect 4 0 6 0;
#X restore 104 520 pd audio;
#X text 42 306 print controls;
#X text 558 467 audio on/off;
#X msg 215 412 reload;
#X msg 215 441 reload;
#X msg 215 383 reload;
#X msg 215 470 reload;
#N canvas 2 52 450 300 \$0-synth 0;
#X obj 10 30 hsl 128 15 0 1 0 0 1003-synth:organ/pan 1003-synth:organ/pan
pan -2 -6 0 10 -262144 -1 -1 6350 1;
#X obj 160 30 nbx 5 14 0 1 0 0 1003-synth:organ/pan 1003-synth:organ/pan
empty 0 -6 0 10 -262144 -1 -1 0.5 256 0;
#X obj 10 60 hsl 128 15 0 1 0 0 1003-synth:organ/vol 1003-synth:organ/vol
vol -2 -6 0 10 -262144 -1 -1 3810 1;
#X obj 160 60 nbx 5 14 0 1 0 0 1003-synth:organ/vol 1003-synth:organ/vol
empty 0 -6 0 10 -262144 -1 -1 0.3 256 0;
#X obj 10 90 hsl 128 15 0 3 0 0 1003-synth:organ/amp1 1003-synth:organ/amp1
amp1 -2 -6 0 10 -262144 -1 -1 4233 1;
#X obj 160 90 nbx 5 14 0 3 0 0 1003-synth:organ/amp1 1003-synth:organ/amp1
empty 0 -6 0 10 -262144 -1 -1 1 256 0;
#X obj 10 120 hsl 128 15 0 3 0 0 1003-synth:organ/amp2 1003-synth:organ/amp2
amp2 -2 -6 0 10 -262144 -1 -1 2117 1;
#X obj 160 120 nbx 5 14 0 3 0 0 1003-synth:organ/amp2 1003-synth:organ/amp2
empty 0 -6 0 10 -262144 -1 -1 0.5 256 0;
#X obj 10 150 hsl 128 15 0 3 0 0 1003-synth:organ/amp3 1003-synth:organ/amp3
amp3 -2 -6 0 10 -262144 -1 -1 1058 1;
#X obj 160 150 nbx 5 14 0 3 0 0 1003-synth:organ/amp3 1003-synth:organ/amp3
empty 0 -6 0 10 -262144 -1 -1 0.25 256 0;
#X obj 10 180 hsl 128 15 0 1 0 0 1003-synth:organ/attack 1003-synth:organ/attack
attack -2 -6 0 10 -262144 -1 -1 127 1;
#X obj 160 180 nbx 5 14 0 1 0 0 1003-synth:organ/attack 1003-synth:organ/attack
empty 0 -6 0 10 -262144 -1 -1 0.01 256 0;
#X obj 10 210 hsl 128 15 0 1 0 0 1003-synth:organ/decay 1003-synth:organ/decay
decay -2 -6 0 10 -262144 -1 -1 3810 1;
#X obj 160 210 nbx 5 14 0 1 0 0 1003-synth:organ/decay 1003-synth:organ/decay
empty 0 -6 0 10 -262144 -1 -1 0.3 256 0;
#X obj 10 240 hsl 128 15 0 1 0 0 1003-synth:organ/sustain 1003-synth:organ/sustain
sustain -2 -6 0 10 -262144 -1 -1 6350 1;
#X obj 160 240 nbx 5 14 0 1 0 0 1003-synth:organ/sustain 1003-synth:organ/sustain
empty 0 -6 0 10 -262144 -1 -1 0.5 256 0;
#X obj 10 270 hsl 128 15 0 1 0 0 1003-synth:organ/release 1003-synth:organ/release
release -2 -6 0 10 -262144 -1 -1 2540 1;
#X obj 160 270 nbx 5 14 0 1 0 0 1003-synth:organ/release 1003-synth:organ/release
empty 0 -6 0 10 -262144 -1 -1 0.2 256 0;
#X obj 177 3 tgl 15 1 1003-synth:record 1003-synth:record empty 0 -6
0 10 -233017 -1 -1 0 1;
#X obj 197 3 bng 15 250 50 1 1003-synth:init 1003-synth:init empty
0 -6 0 10 -262144 -1 -1;
#X obj 217 3 tgl 15 1 1003-synth:active 1003-synth:active empty 0 -6
0 10 -262144 -1 -1 1 1;
#X coords 0 -1 1 1 235 300 1 0 0;
#X restore 267 16 pd \$0-synth;
#N canvas 2 52 450 300 \$0-fx1 0;
#X obj 10 30 hsl 128 15 0 0.2 0 0 1003-fx1:chorus/delay 1003-fx1:chorus/delay
delay -2 -6 0 10 -262144 -1 -1 1587 1;
#X obj 160 30 nbx 5 14 0 0.2 0 0 1003-fx1:chorus/delay 1003-fx1:chorus/delay
empty 0 -6 0 10 -262144 -1 -1 0.025 256 0;
#X obj 10 60 hsl 128 15 0 1 0 0 1003-fx1:chorus/depth 1003-fx1:chorus/depth
depth -2 -6 0 10 -262144 -1 -1 254 1;
#X obj 160 60 nbx 5 14 0 1 0 0 1003-fx1:chorus/depth 1003-fx1:chorus/depth
empty 0 -6 0 10 -262144 -1 -1 0.02 256 0;
#X obj 10 90 hsl 128 15 0 10 0 0 1003-fx1:chorus/freq 1003-fx1:chorus/freq
freq -2 -6 0 10 -262144 -1 -1 3810 1;
#X obj 160 90 nbx 5 14 0 10 0 0 1003-fx1:chorus/freq 1003-fx1:chorus/freq
empty 0 -6 0 10 -262144 -1 -1 3 256 0;
#X obj 10 120 hsl 128 15 0 1 0 0 1003-fx1:chorus/level 1003-fx1:chorus/level
level -2 -6 0 10 -262144 -1 -1 6350 1;
#X obj 160 120 nbx 5 14 0 1 0 0 1003-fx1:chorus/level 1003-fx1:chorus/level
empty 0 -6 0 10 -262144 -1 -1 0.5 256 0;
#X obj 177 3 tgl 15 1 1003-fx1:record 1003-fx1:record empty 0 -6 0
10 -233017 -1 -1 0 1;
#X obj 197 3 bng 15 250 50 1 1003-fx1:init 1003-fx1:init empty 0 -6
0 10 -262144 -1 -1;
#X obj 217 3 tgl 15 1 1003-fx1:active 1003-fx1:active empty 0 -6 0
10 -262144 -1 -1 1 1;
#X coords 0 -1 1 1 235 150 1 0 0;
#X restore 514 16 pd \$0-fx1;
#N canvas 2 52 450 300 \$0-fx2 0;
#X obj 10 30 hsl 128 15 0 1 0 0 1003-fx2:freeverb/damp 1003-fx2:freeverb/damp
damp -2 -6 0 10 -262144 -1 -1 6350 1;
#X obj 160 30 nbx 5 14 0 1 0 0 1003-fx2:freeverb/damp 1003-fx2:freeverb/damp
empty 0 -6 0 10 -262144 -1 -1 0.5 256 0;
#X obj 10 60 hsl 128 15 0 1 0 0 1003-fx2:freeverb/roomsize 1003-fx2:freeverb/roomsize
roomsize -2 -6 0 10 -262144 -1 -1 6350 1;
#X obj 160 60 nbx 5 14 0 1 0 0 1003-fx2:freeverb/roomsize 1003-fx2:freeverb/roomsize
empty 0 -6 0 10 -262144 -1 -1 0.5 256 0;
#X obj 10 90 hsl 128 15 0 1 0 0 1003-fx2:freeverb/wet 1003-fx2:freeverb/wet
wet -2 -6 0 10 -262144 -1 -1 3175 1;
#X obj 160 90 nbx 5 14 0 1 0 0 1003-fx2:freeverb/wet 1003-fx2:freeverb/wet
empty 0 -6 0 10 -262144 -1 -1 0.25 256 0;
#X obj 177 3 tgl 15 1 1003-fx2:record 1003-fx2:record empty 0 -6 0
10 -233017 -1 -1 0 1;
#X obj 197 3 bng 15 250 50 1 1003-fx2:init 1003-fx2:init empty 0 -6
0 10 -262144 -1 -1;
#X obj 217 3 tgl 15 1 1003-fx2:active 1003-fx2:active empty 0 -6 0
10 -262144 -1 -1 1 1;
#X coords 0 -1 1 1 235 120 1 0 0;
#X restore 514 170 pd \$0-fx2;
#N canvas 2 52 450 300 \$0-fx3 0;
#X obj 10 30 nbx 5 14 -20 20 0 0 1003-fx3:amp/bass 1003-fx3:amp/bass
bass 0 -6 0 10 -262144 -1 -1 0 256 0;
#X obj 85 30 nbx 5 14 -20 20 0 0 1003-fx3:amp/treble 1003-fx3:amp/treble
treble 0 -6 0 10 -262144 -1 -1 0 256 0;
#X obj 160 30 nbx 5 14 -96 10 0 0 1003-fx3:amp/gain 1003-fx3:amp/gain
gain 0 -6 0 10 -262144 -1 -1 0 256 0;
#X obj 10 60 hsl 128 15 -1 1 0 0 1003-fx3:amp/balance 1003-fx3:amp/balance
balance -2 -6 0 10 -262144 -1 -1 6350 1;
#X obj 160 60 nbx 5 14 -1 1 0 0 1003-fx3:amp/balance 1003-fx3:amp/balance
empty 0 -6 0 10 -262144 -1 -1 0 256 0;
#X obj 10 90 hsl 128 15 -96 10 0 0 1003-fx3:amp/left 1003-fx3:amp/left
left -2 -6 0 10 -233017 -1 -1 11502 1;
#X obj 160 90 nbx 5 14 -96 10 0 0 1003-fx3:amp/left 1003-fx3:amp/left
empty 0 -6 0 10 -233017 -1 -1 0 256 0;
#X obj 10 120 hsl 128 15 -96 10 0 0 1003-fx3:amp/right 1003-fx3:amp/right
right -2 -6 0 10 -233017 -1 -1 11502 1;
#X obj 160 120 nbx 5 14 -96 10 0 0 1003-fx3:amp/right 1003-fx3:amp/right
empty 0 -6 0 10 -233017 -1 -1 0 256 0;
#X obj 177 3 tgl 15 1 1003-fx3:record 1003-fx3:record empty 0 -6 0
10 -233017 -1 -1 0 1;
#X obj 197 3 bng 15 250 50 1 1003-fx3:init 1003-fx3:init empty 0 -6
0 10 -262144 -1 -1;
#X obj 217 3 tgl 15 1 1003-fx3:active 1003-fx3:active empty 0 -6 0
10 -262144 -1 -1 1 1;
#X coords 0 -1 1 1 235 150 1 0 0;
#X restore 514 295 pd \$0-fx3;
#N canvas 0 22 450 300 (subpatch) 0;
#X array scope-l 1764 float 0 black black;
#X array scope-r 1764 float 0 black black;
#X coords 0 1 1763 -1 201 143 1;
#X restore 22 30 graph;
#X obj 215 520 bng 15 250 50 0 reload empty empty 17 7 0 10 -262144
-1 -1;
#X msg 22 332 write;
#X text 237 519 reload Faust modules;
#X obj 22 355 t a;
#X text 63 331 MIDI/OSC output;
#X obj 22 186 midiosc take5;
#X obj 22 399 faust~ organ "\$0-synth" 0x00;
#X obj 22 428 faust~ chorus "\$0-fx1" 0x000;
#X obj 22 457 faust~ freeverb "\$0-fx2" 0x0;
#X obj 22 486 faust~ amp "\$0-fx3" 0x000000;
#N canvas 385 143 494 284 META 0;
#X text 12 135 HELP_PATCH_AUTHORS Albert Gräf;
#X text 12 25 KEYWORDS Faust functional dsp programming;
#X text 12 115 WEBSITE http://faust.grame.fr/;
#X text 12 95 LIBRARY Faust;
#X text 12 65 DESCRIPTION Faust synth example;
#X text 12 45 LICENSE LGPL;
#X restore 410 520 pd META;
#X connect 0 0 2 0;
#X connect 3 0 23 0;
#X connect 3 0 24 0;
#X connect 3 0 25 0;
#X connect 3 0 26 0;
#X connect 8 0 24 0;
#X connect 9 0 25 0;
#X connect 10 0 23 0;
#X connect 11 0 26 0;
#X connect 18 0 20 0;
#X connect 20 0 23 0;
#X connect 20 0 24 0;
#X connect 20 0 25 0;
#X connect 20 0 26 0;
#X connect 22 0 20 0;
#X connect 23 0 4 0;
#X connect 23 1 24 1;
#X connect 23 2 24 2;
#X connect 24 0 4 0;
#X connect 24 1 25 1;
#X connect 24 2 25 2;
#X connect 25 0 4 0;
#X connect 25 1 26 1;
#X connect 25 2 26 2;
#X connect 26 0 4 0;
#X connect 26 1 5 0;
#X connect 26 2 5 1;
