#N canvas 126 110 993 631 10;
#X obj 513 483 tgl 30 0 empty play empty 17 7 0 10 -203904 -1 -1 0
1;
#X obj 593 542 faust-remote;
#X msg 513 523 \; on \$1 \; pd dsp \$1;
#N canvas 543 488 450 300 audio 0;
#X obj 140 24 tgl 15 0 empty on empty 17 7 0 10 -262144 -1 -1 0 1;
#X obj 140 53 metro 40;
#X obj 52 99 dac~;
#X obj 19 53 inlet~;
#X obj 74 53 inlet~;
#X obj 140 100 tabwrite~ scope-l;
#X obj 140 80 tabwrite~ scope-r;
#X connect 0 0 1 0;
#X connect 1 0 6 0;
#X connect 1 0 5 0;
#X connect 3 0 2 0;
#X connect 3 0 5 0;
#X connect 4 0 2 1;
#X connect 4 0 6 0;
#X restore 113 503 pd audio;
#X text 557 490 audio on/off;
#N canvas 2 52 450 300 \$0-fx1 0;
#X obj 10 30 hsl 128 15 0 0.2 0 0 1003-fx1:chorus/delay 1003-fx1:chorus/delay
delay -2 -6 0 10 -262144 -1 -1 1587 1;
#X obj 160 30 nbx 5 14 0 0.2 0 0 1003-fx1:chorus/delay 1003-fx1:chorus/delay
empty 0 -6 0 10 -262144 -1 -1 0.025 256 0;
#X obj 10 60 hsl 128 15 0 1 0 0 1003-fx1:chorus/depth 1003-fx1:chorus/depth
depth -2 -6 0 10 -262144 -1 -1 254 1;
#X obj 160 60 nbx 5 14 0 1 0 0 1003-fx1:chorus/depth 1003-fx1:chorus/depth
empty 0 -6 0 10 -262144 -1 -1 0.02 256 0;
#X obj 10 90 hsl 128 15 0 10 0 0 1003-fx1:chorus/freq 1003-fx1:chorus/freq
freq -2 -6 0 10 -262144 -1 -1 3810 1;
#X obj 160 90 nbx 5 14 0 10 0 0 1003-fx1:chorus/freq 1003-fx1:chorus/freq
empty 0 -6 0 10 -262144 -1 -1 3 256 0;
#X obj 10 120 hsl 128 15 0 1 0 0 1003-fx1:chorus/level 1003-fx1:chorus/level
level -2 -6 0 10 -262144 -1 -1 6350 1;
#X obj 160 120 nbx 5 14 0 1 0 0 1003-fx1:chorus/level 1003-fx1:chorus/level
empty 0 -6 0 10 -262144 -1 -1 0.5 256 0;
#X obj 177 3 tgl 15 1 1003-fx1:record 1003-fx1:record empty 0 -6 0
10 -233017 -1 -1 0 1;
#X obj 197 3 bng 15 250 50 1 1003-fx1:init 1003-fx1:init empty 0 -6
0 10 -262144 -1 -1;
#X obj 217 3 tgl 15 1 1003-fx1:active 1003-fx1:active empty 0 -6 0
10 -262144 -1 -1 1 1;
#X coords 0 -1 1 1 235 150 1 0 0;
#X restore 737 16 pd \$0-fx1;
#N canvas 2 52 450 300 \$0-fx2 0;
#X obj 10 30 hsl 128 15 0 1 0 0 1003-fx2:freeverb/damp 1003-fx2:freeverb/damp
damp -2 -6 0 10 -262144 -1 -1 6350 1;
#X obj 160 30 nbx 5 14 0 1 0 0 1003-fx2:freeverb/damp 1003-fx2:freeverb/damp
empty 0 -6 0 10 -262144 -1 -1 0.5 256 0;
#X obj 10 60 hsl 128 15 0 1 0 0 1003-fx2:freeverb/roomsize 1003-fx2:freeverb/roomsize
roomsize -2 -6 0 10 -262144 -1 -1 6350 1;
#X obj 160 60 nbx 5 14 0 1 0 0 1003-fx2:freeverb/roomsize 1003-fx2:freeverb/roomsize
empty 0 -6 0 10 -262144 -1 -1 0.5 256 0;
#X obj 10 90 hsl 128 15 0 1 0 0 1003-fx2:freeverb/wet 1003-fx2:freeverb/wet
wet -2 -6 0 10 -262144 -1 -1 3175 1;
#X obj 160 90 nbx 5 14 0 1 0 0 1003-fx2:freeverb/wet 1003-fx2:freeverb/wet
empty 0 -6 0 10 -262144 -1 -1 0.25 256 0;
#X obj 177 3 tgl 15 1 1003-fx2:record 1003-fx2:record empty 0 -6 0
10 -233017 -1 -1 0 1;
#X obj 197 3 bng 15 250 50 1 1003-fx2:init 1003-fx2:init empty 0 -6
0 10 -262144 -1 -1;
#X obj 217 3 tgl 15 1 1003-fx2:active 1003-fx2:active empty 0 -6 0
10 -262144 -1 -1 1 1;
#X coords 0 -1 1 1 235 120 1 0 0;
#X restore 737 170 pd \$0-fx2;
#N canvas 2 52 450 300 \$0-fx3 0;
#X obj 10 30 nbx 5 14 -20 20 0 0 1003-fx3:amp/bass 1003-fx3:amp/bass
bass 0 -6 0 10 -262144 -1 -1 0 256 0;
#X obj 85 30 nbx 5 14 -20 20 0 0 1003-fx3:amp/treble 1003-fx3:amp/treble
treble 0 -6 0 10 -262144 -1 -1 0 256 0;
#X obj 160 30 nbx 5 14 -96 10 0 0 1003-fx3:amp/gain 1003-fx3:amp/gain
gain 0 -6 0 10 -262144 -1 -1 0 256 0;
#X obj 10 60 hsl 128 15 -1 1 0 0 1003-fx3:amp/balance 1003-fx3:amp/balance
balance -2 -6 0 10 -262144 -1 -1 6350 1;
#X obj 160 60 nbx 5 14 -1 1 0 0 1003-fx3:amp/balance 1003-fx3:amp/balance
empty 0 -6 0 10 -262144 -1 -1 0 256 0;
#X obj 10 90 hsl 128 15 -96 10 0 0 1003-fx3:amp/left 1003-fx3:amp/left
left -2 -6 0 10 -233017 -1 -1 11502 1;
#X obj 160 90 nbx 5 14 -96 10 0 0 1003-fx3:amp/left 1003-fx3:amp/left
empty 0 -6 0 10 -233017 -1 -1 0 256 0;
#X obj 10 120 hsl 128 15 -96 10 0 0 1003-fx3:amp/right 1003-fx3:amp/right
right -2 -6 0 10 -233017 -1 -1 11502 1;
#X obj 160 120 nbx 5 14 -96 10 0 0 1003-fx3:amp/right 1003-fx3:amp/right
empty 0 -6 0 10 -233017 -1 -1 0 256 0;
#X obj 177 3 tgl 15 1 1003-fx3:record 1003-fx3:record empty 0 -6 0
10 -233017 -1 -1 0 1;
#X obj 197 3 bng 15 250 50 1 1003-fx3:init 1003-fx3:init empty 0 -6
0 10 -262144 -1 -1;
#X obj 217 3 tgl 15 1 1003-fx3:active 1003-fx3:active empty 0 -6 0
10 -262144 -1 -1 1 1;
#X coords 0 -1 1 1 235 150 1 0 0;
#X restore 737 295 pd \$0-fx3;
#N canvas 0 22 450 300 (subpatch) 0;
#X array scope-l 1764 float 0 black black;
#X array scope-r 1764 float 0 black black;
#X coords 0 1 1763 -1 201 143 1;
#X restore 22 30 graph;
#N canvas 5 78 450 300 \$0-bass 0;
#X obj 10 30 hsl 128 15 20 1000 0 0 1003-bass:bass/Nonlinear-Filter-Parameters/Modulation-Frequency
1003-bass:bass/Nonlinear-Filter-Parameters/Modulation-Frequency Modulation-Frequency
-2 -6 0 10 -262144 -1 -1 2592 1;
#X obj 160 30 nbx 5 14 20 1000 0 0 1003-bass:bass/Nonlinear-Filter-Parameters/Modulation-Frequency
1003-bass:bass/Nonlinear-Filter-Parameters/Modulation-Frequency empty
0 -6 0 10 -262144 -1 -1 220 256 0;
#X obj 10 60 hradio 15 1 0 5 1003-bass:bass/Nonlinear-Filter-Parameters/Modulation-Type
1003-bass:bass/Nonlinear-Filter-Parameters/Modulation-Type Modulation-Type
0 -6 0 10 -262144 -1 -1 0;
#X obj 10 90 hsl 128 15 0 1 0 0 1003-bass:bass/Nonlinear-Filter-Parameters/Nonlinearity
1003-bass:bass/Nonlinear-Filter-Parameters/Nonlinearity Nonlinearity
-2 -6 0 10 -262144 -1 -1 0 1;
#X obj 160 90 nbx 5 14 0 1 0 0 1003-bass:bass/Nonlinear-Filter-Parameters/Nonlinearity
1003-bass:bass/Nonlinear-Filter-Parameters/Nonlinearity empty 0 -6
0 10 -262144 -1 -1 0 256 0;
#X obj 10 120 hsl 128 15 0 1 0 0 1003-bass:bass/Physical-Parameters/Touch-Length
1003-bass:bass/Physical-Parameters/Touch-Length Touch-Length -2 -6
0 10 -262144 -1 -1 1905 1;
#X obj 160 120 nbx 5 14 0 1 0 0 1003-bass:bass/Physical-Parameters/Touch-Length
1003-bass:bass/Physical-Parameters/Touch-Length empty 0 -6 0 10 -262144
-1 -1 0.15 256 0;
#X obj 10 150 hsl 128 15 0 1 0 0 1003-bass:bass/Reverb/reverbGain 1003-bass:bass/Reverb/reverbGain
reverbGain -2 -6 0 10 -262144 -1 -1 1740 1;
#X obj 160 150 nbx 5 14 0 1 0 0 1003-bass:bass/Reverb/reverbGain 1003-bass:bass/Reverb/reverbGain
empty 0 -6 0 10 -262144 -1 -1 0.137 256 0;
#X obj 10 180 hsl 128 15 0.01 2 0 0 1003-bass:bass/Reverb/roomSize
1003-bass:bass/Reverb/roomSize roomSize -2 -6 0 10 -262144 -1 -1 4531
1;
#X obj 160 180 nbx 5 14 0.01 2 0 0 1003-bass:bass/Reverb/roomSize 1003-bass:bass/Reverb/roomSize
empty 0 -6 0 10 -262144 -1 -1 0.72 256 0;
#X obj 10 210 hsl 128 15 0 1 0 0 1003-bass:bass/Spat/pan-angle 1003-bass:bass/Spat/pan-angle
pan-angle -2 -6 0 10 -262144 -1 -1 7620 1;
#X obj 160 210 nbx 5 14 0 1 0 0 1003-bass:bass/Spat/pan-angle 1003-bass:bass/Spat/pan-angle
empty 0 -6 0 10 -262144 -1 -1 0.6 256 0;
#X obj 10 240 hsl 128 15 0 1 0 0 1003-bass:bass/Spat/spatial-width
1003-bass:bass/Spat/spatial-width spatial-width -2 -6 0 10 -262144
-1 -1 6350 1;
#X obj 160 240 nbx 5 14 0 1 0 0 1003-bass:bass/Spat/spatial-width 1003-bass:bass/Spat/spatial-width
empty 0 -6 0 10 -262144 -1 -1 0.5 256 0;
#X obj 177 3 tgl 15 1 1003-bass:record 1003-bass:record empty 0 -6
0 10 -233017 -1 -1 0 1;
#X obj 197 3 bng 15 250 50 1 1003-bass:init 1003-bass:init empty 0
-6 0 10 -262144 -1 -1;
#X obj 217 3 tgl 15 1 1003-bass:active 1003-bass:active empty 0 -6
0 10 -262144 -1 -1 1 1;
#X coords 0 -1 1 1 235 270 1 0 0;
#X restore 247 324 pd \$0-bass;
#X obj 23 542 bng 15 250 50 0 reload empty empty 17 7 0 10 -262144
-1 -1;
#X text 47 540 reload all Faust modules;
#X obj 22 187 midiosc what_a_friend;
#N canvas 2 52 450 300 \$0-acc 0;
#X obj 10 30 hsl 128 15 0 1 0 0 1003-acc:subtractive/pan 1003-acc:subtractive/pan
pan -2 -6 0 10 -262144 -1 -1 6350 1;
#X obj 160 30 nbx 5 14 0 1 0 0 1003-acc:subtractive/pan 1003-acc:subtractive/pan
empty 0 -6 0 10 -262144 -1 -1 0.5 256 0;
#X obj 10 60 hsl 128 15 0 1 0 0 1003-acc:subtractive/vol 1003-acc:subtractive/vol
vol -2 -6 0 10 -262144 -1 -1 3810 1;
#X obj 160 60 nbx 5 14 0 1 0 0 1003-acc:subtractive/vol 1003-acc:subtractive/vol
empty 0 -6 0 10 -262144 -1 -1 0.3 256 0;
#X obj 10 90 hsl 128 15 1 20 0 0 1003-acc:subtractive/cutoff 1003-acc:subtractive/cutoff
cutoff -2 -6 0 10 -262144 -1 -1 3342 1;
#X obj 160 90 nbx 5 14 1 20 0 0 1003-acc:subtractive/cutoff 1003-acc:subtractive/cutoff
empty 0 -6 0 10 -262144 -1 -1 6 256 0;
#X obj 10 120 hsl 128 15 0 20 0 0 1003-acc:subtractive/res 1003-acc:subtractive/res
res -2 -6 0 10 -262144 -1 -1 1905 1;
#X obj 160 120 nbx 5 14 0 20 0 0 1003-acc:subtractive/res 1003-acc:subtractive/res
empty 0 -6 0 10 -262144 -1 -1 3 256 0;
#X obj 10 150 hsl 128 15 0 1 0 0 1003-acc:subtractive/attack 1003-acc:subtractive/attack
attack -2 -6 0 10 -262144 -1 -1 127 1;
#X obj 160 150 nbx 5 14 0 1 0 0 1003-acc:subtractive/attack 1003-acc:subtractive/attack
empty 0 -6 0 10 -262144 -1 -1 0.01 256 0;
#X obj 10 180 hsl 128 15 0 1 0 0 1003-acc:subtractive/decay 1003-acc:subtractive/decay
decay -2 -6 0 10 -262144 -1 -1 3810 1;
#X obj 160 180 nbx 5 14 0 1 0 0 1003-acc:subtractive/decay 1003-acc:subtractive/decay
empty 0 -6 0 10 -262144 -1 -1 0.3 256 0;
#X obj 10 210 hsl 128 15 0 1 0 0 1003-acc:subtractive/sustain 1003-acc:subtractive/sustain
sustain -2 -6 0 10 -262144 -1 -1 6350 1;
#X obj 160 210 nbx 5 14 0 1 0 0 1003-acc:subtractive/sustain 1003-acc:subtractive/sustain
empty 0 -6 0 10 -262144 -1 -1 0.5 256 0;
#X obj 10 240 hsl 128 15 0 1 0 0 1003-acc:subtractive/release 1003-acc:subtractive/release
release -2 -6 0 10 -262144 -1 -1 2540 1;
#X obj 160 240 nbx 5 14 0 1 0 0 1003-acc:subtractive/release 1003-acc:subtractive/release
empty 0 -6 0 10 -262144 -1 -1 0.2 256 0;
#X obj 177 3 tgl 15 1 1003-acc:record 1003-acc:record empty 0 -6 0
10 -233017 -1 -1 0 1;
#X obj 197 3 bng 15 250 50 1 1003-acc:init 1003-acc:init empty 0 -6
0 10 -262144 -1 -1;
#X obj 217 3 tgl 15 1 1003-acc:active 1003-acc:active empty 0 -6 0
10 -262144 -1 -1 1 1;
#X coords 0 -1 1 1 235 270 1 0 0;
#X restore 247 16 pd \$0-acc;
#N canvas 5 78 450 300 \$0-mel 0;
#X obj 10 30 hsl 128 15 1 15 0 0 1003-mel:modalBar/Envelopes-and-Vibrato/Vibrato-Parameters/Vibrato-Freq
1003-mel:modalBar/Envelopes-and-Vibrato/Vibrato-Parameters/Vibrato-Freq
Vibrato-Freq -2 -6 0 10 -262144 -1 -1 4536 1;
#X obj 160 30 nbx 5 14 1 15 0 0 1003-mel:modalBar/Envelopes-and-Vibrato/Vibrato-Parameters/Vibrato-Freq
1003-mel:modalBar/Envelopes-and-Vibrato/Vibrato-Parameters/Vibrato-Freq
empty 0 -6 0 10 -262144 -1 -1 6 256 0;
#X obj 10 60 hsl 128 15 0 1 0 0 1003-mel:modalBar/Envelopes-and-Vibrato/Vibrato-Parameters/Vibrato-Gain
1003-mel:modalBar/Envelopes-and-Vibrato/Vibrato-Parameters/Vibrato-Gain
Vibrato-Gain -2 -6 0 10 -262144 -1 -1 1270 1;
#X obj 160 60 nbx 5 14 0 1 0 0 1003-mel:modalBar/Envelopes-and-Vibrato/Vibrato-Parameters/Vibrato-Gain
1003-mel:modalBar/Envelopes-and-Vibrato/Vibrato-Parameters/Vibrato-Gain
empty 0 -6 0 10 -262144 -1 -1 0.1 256 0;
#X obj 10 90 hsl 128 15 20 1000 0 0 1003-mel:modalBar/Physical-and-Nonlinearity/Nonlinear-Filter-Parameters/Modula*
1003-mel:modalBar/Physical-and-Nonlinearity/Nonlinear-Filter-Parameters/Modula*
Modulation-Frequency -2 -6 0 10 -262144 -1 -1 2592 1;
#X obj 160 90 nbx 5 14 20 1000 0 0 1003-mel:modalBar/Physical-and-Nonlinearity/Nonlinear-Filter-Parameters/Modula*
1003-mel:modalBar/Physical-and-Nonlinearity/Nonlinear-Filter-Parameters/Modula*
empty 0 -6 0 10 -262144 -1 -1 220 256 0;
#X obj 10 120 hradio 15 1 0 5 1003-mel:modalBar/Physical-and-Nonlinearity/Nonlinear-Filter-Parameters/Modula*
1003-mel:modalBar/Physical-and-Nonlinearity/Nonlinear-Filter-Parameters/Modula*
Modulation-Type 0 -6 0 10 -262144 -1 -1 0;
#X obj 10 150 hsl 128 15 0 1 0 0 1003-mel:modalBar/Physical-and-Nonlinearity/Nonlinear-Filter-Parameters/Nonlin*
1003-mel:modalBar/Physical-and-Nonlinearity/Nonlinear-Filter-Parameters/Nonlin*
Nonlinearity -2 -6 0 10 -262144 -1 -1 0 1;
#X obj 160 150 nbx 5 14 0 1 0 0 1003-mel:modalBar/Physical-and-Nonlinearity/Nonlinear-Filter-Parameters/Nonlin*
1003-mel:modalBar/Physical-and-Nonlinearity/Nonlinear-Filter-Parameters/Nonlin*
empty 0 -6 0 10 -262144 -1 -1 0 256 0;
#X obj 10 180 hradio 15 1 0 9 1003-mel:modalBar/Physical-and-Nonlinearity/Physical-Parameters/Preset
1003-mel:modalBar/Physical-and-Nonlinearity/Physical-Parameters/Preset
Preset 0 -6 0 10 -262144 -1 -1 1;
#X obj 10 210 hradio 15 1 0 2 1003-mel:modalBar/Physical-and-Nonlinearity/Physical-Parameters/Resonance
1003-mel:modalBar/Physical-and-Nonlinearity/Physical-Parameters/Resonance
Resonance 0 -6 0 10 -262144 -1 -1 1;
#X obj 10 240 hsl 128 15 0 1 0 0 1003-mel:modalBar/Physical-and-Nonlinearity/Physical-Parameters/Stick-Hardness
1003-mel:modalBar/Physical-and-Nonlinearity/Physical-Parameters/Stick-Hardness
Stick-Hardness -2 -6 0 10 -262144 -1 -1 3175 1;
#X obj 160 240 nbx 5 14 0 1 0 0 1003-mel:modalBar/Physical-and-Nonlinearity/Physical-Parameters/Stick-Hardness
1003-mel:modalBar/Physical-and-Nonlinearity/Physical-Parameters/Stick-Hardness
empty 0 -6 0 10 -262144 -1 -1 0.25 256 0;
#X obj 10 270 hsl 128 15 0 1 0 0 1003-mel:modalBar/Reverb/reverbGain
1003-mel:modalBar/Reverb/reverbGain reverbGain -2 -6 0 10 -262144 -1
-1 1740 1;
#X obj 160 270 nbx 5 14 0 1 0 0 1003-mel:modalBar/Reverb/reverbGain
1003-mel:modalBar/Reverb/reverbGain empty 0 -6 0 10 -262144 -1 -1 0.137
256 0;
#X obj 10 300 hsl 128 15 0.01 2 0 0 1003-mel:modalBar/Reverb/roomSize
1003-mel:modalBar/Reverb/roomSize roomSize -2 -6 0 10 -262144 -1 -1
4531 1;
#X obj 160 300 nbx 5 14 0.01 2 0 0 1003-mel:modalBar/Reverb/roomSize
1003-mel:modalBar/Reverb/roomSize empty 0 -6 0 10 -262144 -1 -1 0.72
256 0;
#X obj 10 330 hsl 128 15 0 1 0 0 1003-mel:modalBar/Spat/pan-angle 1003-mel:modalBar/Spat/pan-angle
pan-angle -2 -6 0 10 -262144 -1 -1 7620 1;
#X obj 160 330 nbx 5 14 0 1 0 0 1003-mel:modalBar/Spat/pan-angle 1003-mel:modalBar/Spat/pan-angle
empty 0 -6 0 10 -262144 -1 -1 0.6 256 0;
#X obj 10 360 hsl 128 15 0 1 0 0 1003-mel:modalBar/Spat/spatial-width
1003-mel:modalBar/Spat/spatial-width spatial-width -2 -6 0 10 -262144
-1 -1 6350 1;
#X obj 160 360 nbx 5 14 0 1 0 0 1003-mel:modalBar/Spat/spatial-width
1003-mel:modalBar/Spat/spatial-width empty 0 -6 0 10 -262144 -1 -1
0.5 256 0;
#X obj 177 3 tgl 15 1 1003-mel:record 1003-mel:record empty 0 -6 0
10 -233017 -1 -1 0 1;
#X obj 197 3 bng 15 250 50 1 1003-mel:init 1003-mel:init empty 0 -6
0 10 -262144 -1 -1;
#X obj 217 3 tgl 15 1 1003-mel:active 1003-mel:active empty 0 -6 0
10 -262144 -1 -1 1 1;
#X coords 0 -1 1 1 235 390 1 0 0;
#X restore 492 16 pd \$0-mel;
#X obj 22 311 faust~ subtractive "\$0-acc" 1 8;
#X obj 22 337 faust~ modalBar "\$0-mel" 0x03 4;
#X obj 22 363 faust~ bass "\$0-bass" 0x00002 3;
#X obj 22 409 faust~ chorus "\$0-fx1" 0x000001;
#X obj 22 440 faust~ freeverb "\$0-fx2" 0x0001;
#X obj 22 469 faust~ amp "\$0-fx3" 0x000000001;
#N canvas 385 143 494 284 META 0;
#X text 12 135 HELP_PATCH_AUTHORS Albert Gräf;
#X text 12 25 KEYWORDS Faust functional dsp programming;
#X text 12 115 WEBSITE http://faust.grame.fr/;
#X text 12 95 LIBRARY Faust;
#X text 12 65 DESCRIPTION Faust "What a Friend" example;
#X text 12 45 LICENSE LGPL;
#X restore 923 579 pd META;
#X connect 0 0 2 0;
#X connect 12 0 15 0;
#X connect 12 0 16 0;
#X connect 12 0 17 0;
#X connect 12 0 18 0;
#X connect 12 0 19 0;
#X connect 12 0 20 0;
#X connect 15 1 18 1;
#X connect 15 2 18 2;
#X connect 16 1 18 1;
#X connect 16 2 18 2;
#X connect 17 1 18 1;
#X connect 17 2 18 2;
#X connect 18 1 19 1;
#X connect 18 2 19 2;
#X connect 19 1 20 1;
#X connect 19 2 20 2;
#X connect 20 1 3 0;
#X connect 20 2 3 1;
