#N canvas 184 230 993 631 10;
#X obj 513 483 tgl 30 0 empty play empty 17 7 0 10 -203904 -1 -1 0
1;
#X obj 593 542 faust-remote;
#X msg 513 523 \; on \$1 \; pd dsp \$1;
#N canvas 543 488 450 300 audio 0;
#X obj 140 24 tgl 15 0 empty on empty 17 7 0 10 -262144 -1 -1 0 1;
#X obj 140 53 metro 40;
#X obj 52 99 dac~;
#X obj 19 53 inlet~;
#X obj 74 53 inlet~;
#X obj 140 100 tabwrite~ scope-l;
#X obj 140 80 tabwrite~ scope-r;
#X connect 0 0 1 0;
#X connect 1 0 6 0;
#X connect 1 0 5 0;
#X connect 3 0 2 0;
#X connect 3 0 5 0;
#X connect 4 0 2 1;
#X connect 4 0 6 0;
#X restore 117 503 pd audio;
#X text 557 490 audio on/off;
#N canvas 2 52 450 300 \$0-fx1 0;
#X obj 10 30 hsl 128 15 0 0.2 0 0 1002-fx1:chorus/delay 1002-fx1:chorus/delay
delay -2 -6 0 10 -262144 -1 -1 1587 1;
#X obj 160 30 nbx 5 14 0 0.2 0 0 1002-fx1:chorus/delay 1002-fx1:chorus/delay
empty 0 -6 0 10 -262144 -1 -1 0.025 256;
#X obj 10 60 hsl 128 15 0 1 0 0 1002-fx1:chorus/depth 1002-fx1:chorus/depth
depth -2 -6 0 10 -262144 -1 -1 254 1;
#X obj 160 60 nbx 5 14 0 1 0 0 1002-fx1:chorus/depth 1002-fx1:chorus/depth
empty 0 -6 0 10 -262144 -1 -1 0.02 256;
#X obj 10 90 hsl 128 15 0 10 0 0 1002-fx1:chorus/freq 1002-fx1:chorus/freq
freq -2 -6 0 10 -262144 -1 -1 3810 1;
#X obj 160 90 nbx 5 14 0 10 0 0 1002-fx1:chorus/freq 1002-fx1:chorus/freq
empty 0 -6 0 10 -262144 -1 -1 3 256;
#X obj 10 120 hsl 128 15 0 1 0 0 1002-fx1:chorus/level 1002-fx1:chorus/level
level -2 -6 0 10 -262144 -1 -1 6350 1;
#X obj 160 120 nbx 5 14 0 1 0 0 1002-fx1:chorus/level 1002-fx1:chorus/level
empty 0 -6 0 10 -262144 -1 -1 0.5 256;
#X obj 177 3 tgl 15 1 1002-fx1:record 1002-fx1:record empty 0 -6 0
10 -233017 -1 -1 0 1;
#X obj 197 3 bng 15 250 50 1 1002-fx1:init 1002-fx1:init empty 0 -6
0 10 -262144 -1 -1;
#X obj 217 3 tgl 15 1 1002-fx1:active 1002-fx1:active empty 0 -6 0
10 -262144 -1 -1 1 1;
#X coords 0 -1 1 1 235 150 1 0 0;
#X restore 737 16 pd \$0-fx1;
#N canvas 2 52 450 300 \$0-fx2 0;
#X obj 10 30 hsl 128 15 0 1 0 0 1002-fx2:freeverb/damp 1002-fx2:freeverb/damp
damp -2 -6 0 10 -262144 -1 -1 6350 1;
#X obj 160 30 nbx 5 14 0 1 0 0 1002-fx2:freeverb/damp 1002-fx2:freeverb/damp
empty 0 -6 0 10 -262144 -1 -1 0.5 256;
#X obj 10 60 hsl 128 15 0 1 0 0 1002-fx2:freeverb/roomsize 1002-fx2:freeverb/roomsize
roomsize -2 -6 0 10 -262144 -1 -1 6350 1;
#X obj 160 60 nbx 5 14 0 1 0 0 1002-fx2:freeverb/roomsize 1002-fx2:freeverb/roomsize
empty 0 -6 0 10 -262144 -1 -1 0.5 256;
#X obj 10 90 hsl 128 15 0 1 0 0 1002-fx2:freeverb/wet 1002-fx2:freeverb/wet
wet -2 -6 0 10 -262144 -1 -1 3175 1;
#X obj 160 90 nbx 5 14 0 1 0 0 1002-fx2:freeverb/wet 1002-fx2:freeverb/wet
empty 0 -6 0 10 -262144 -1 -1 0.25 256;
#X obj 177 3 tgl 15 1 1002-fx2:record 1002-fx2:record empty 0 -6 0
10 -233017 -1 -1 0 1;
#X obj 197 3 bng 15 250 50 1 1002-fx2:init 1002-fx2:init empty 0 -6
0 10 -262144 -1 -1;
#X obj 217 3 tgl 15 1 1002-fx2:active 1002-fx2:active empty 0 -6 0
10 -262144 -1 -1 1 1;
#X coords 0 -1 1 1 235 120 1 0 0;
#X restore 737 170 pd \$0-fx2;
#N canvas 2 52 450 300 \$0-fx3 0;
#X obj 10 30 nbx 5 14 -20 20 0 0 1002-fx3:amp/0-amp/1-tone/bass 1002-fx3:amp/0-amp/1-tone/bass
bass 0 -6 0 10 -262144 -1 -1 0 256;
#X obj 85 30 nbx 5 14 -20 20 0 0 1002-fx3:amp/0-amp/1-tone/treble 1002-fx3:amp/0-amp/1-tone/treble
treble 0 -6 0 10 -262144 -1 -1 0 256;
#X obj 160 30 nbx 5 14 -96 10 0 0 1002-fx3:amp/0-amp/2-gain/gain 1002-fx3:amp/0-amp/2-gain/gain
gain 0 -6 0 10 -262144 -1 -1 0 256;
#X obj 10 60 hsl 128 15 -1 1 0 0 1002-fx3:amp/3-balance/balance 1002-fx3:amp/3-balance/balance
balance -2 -6 0 10 -262144 -1 -1 6350 1;
#X obj 160 60 nbx 5 14 -1 1 0 0 1002-fx3:amp/3-balance/balance 1002-fx3:amp/3-balance/balance
empty 0 -6 0 10 -262144 -1 -1 0 256;
#X obj 10 90 hsl 128 15 -96 10 0 0 1002-fx3:amp/4-meter/left 1002-fx3:amp/4-meter/left
left -2 -6 0 10 -233017 -1 -1 11502 1;
#X obj 160 90 nbx 5 14 -96 10 0 0 1002-fx3:amp/4-meter/left 1002-fx3:amp/4-meter/left
empty 0 -6 0 10 -233017 -1 -1 0 256;
#X obj 10 120 hsl 128 15 -96 10 0 0 1002-fx3:amp/4-meter/right 1002-fx3:amp/4-meter/right
right -2 -6 0 10 -233017 -1 -1 11502 1;
#X obj 160 120 nbx 5 14 -96 10 0 0 1002-fx3:amp/4-meter/right 1002-fx3:amp/4-meter/right
empty 0 -6 0 10 -233017 -1 -1 0 256;
#X obj 177 3 tgl 15 1 1002-fx3:record 1002-fx3:record empty 0 -6 0
10 -233017 -1 -1 0 1;
#X obj 197 3 bng 15 250 50 1 1002-fx3:init 1002-fx3:init empty 0 -6
0 10 -262144 -1 -1;
#X obj 217 3 tgl 15 1 1002-fx3:active 1002-fx3:active empty 0 -6 0
10 -262144 -1 -1 1 1;
#X coords 0 -1 1 1 235 150 1 0 0;
#X restore 737 295 pd \$0-fx3;
#N canvas 0 0 450 300 (subpatch) 0;
#X array scope-l 1920 float 0;
#X array scope-r 1920 float 0;
#X coords 0 1 1919 -1 200 140 1 0 0;
#X restore 22 30 graph;
#N canvas 5 78 450 300 \$0-bass 0;
#X obj 10 30 hsl 128 15 20 1000 0 0 1002-bass:Nonlinear-Filter-Parameters/Modulation-Frequency
1002-bass:Nonlinear-Filter-Parameters/Modulation-Frequency Modulation-Frequency
-2 -6 0 10 -262144 -1 -1 2592 1;
#X obj 160 30 nbx 5 14 20 1000 0 0 1002-bass:Nonlinear-Filter-Parameters/Modulation-Frequency
1002-bass:Nonlinear-Filter-Parameters/Modulation-Frequency empty 0
-6 0 10 -262144 -1 -1 220 256;
#X obj 10 60 hradio 15 1 0 5 1002-bass:Nonlinear-Filter-Parameters/Modulation-Type
1002-bass:Nonlinear-Filter-Parameters/Modulation-Type Modulation-Type
0 -6 0 10 -262144 -1 -1 0;
#X obj 10 90 hsl 128 15 0 1 0 0 1002-bass:Nonlinear-Filter-Parameters/Nonlinearity
1002-bass:Nonlinear-Filter-Parameters/Nonlinearity Nonlinearity -2
-6 0 10 -262144 -1 -1 0 1;
#X obj 160 90 nbx 5 14 0 1 0 0 1002-bass:Nonlinear-Filter-Parameters/Nonlinearity
1002-bass:Nonlinear-Filter-Parameters/Nonlinearity empty 0 -6 0 10
-262144 -1 -1 0 256;
#X obj 10 120 hsl 128 15 0 1 0 0 1002-bass:Physical-Parameters/Touch-Length
1002-bass:Physical-Parameters/Touch-Length Touch-Length -2 -6 0 10
-262144 -1 -1 1905 1;
#X obj 160 120 nbx 5 14 0 1 0 0 1002-bass:Physical-Parameters/Touch-Length
1002-bass:Physical-Parameters/Touch-Length empty 0 -6 0 10 -262144
-1 -1 0.15 256;
#X obj 10 150 hsl 128 15 0 1 0 0 1002-bass:Reverb/reverbGain 1002-bass:Reverb/reverbGain
reverbGain -2 -6 0 10 -262144 -1 -1 1740 1;
#X obj 160 150 nbx 5 14 0 1 0 0 1002-bass:Reverb/reverbGain 1002-bass:Reverb/reverbGain
empty 0 -6 0 10 -262144 -1 -1 0.137 256;
#X obj 10 180 hsl 128 15 0.01 2 0 0 1002-bass:Reverb/roomSize 1002-bass:Reverb/roomSize
roomSize -2 -6 0 10 -262144 -1 -1 4531 1;
#X obj 160 180 nbx 5 14 0.01 2 0 0 1002-bass:Reverb/roomSize 1002-bass:Reverb/roomSize
empty 0 -6 0 10 -262144 -1 -1 0.72 256;
#X obj 10 210 hsl 128 15 0 1 0 0 1002-bass:Spat/pan-angle 1002-bass:Spat/pan-angle
pan-angle -2 -6 0 10 -262144 -1 -1 7620 1;
#X obj 160 210 nbx 5 14 0 1 0 0 1002-bass:Spat/pan-angle 1002-bass:Spat/pan-angle
empty 0 -6 0 10 -262144 -1 -1 0.6 256;
#X obj 10 240 hsl 128 15 0 1 0 0 1002-bass:Spat/spatial-width 1002-bass:Spat/spatial-width
spatial-width -2 -6 0 10 -262144 -1 -1 6350 1;
#X obj 160 240 nbx 5 14 0 1 0 0 1002-bass:Spat/spatial-width 1002-bass:Spat/spatial-width
empty 0 -6 0 10 -262144 -1 -1 0.5 256;
#X obj 177 3 tgl 15 1 1002-bass:record 1002-bass:record empty 0 -6
0 10 -233017 -1 -1 0 1;
#X obj 197 3 bng 15 250 50 1 1002-bass:init 1002-bass:init empty 0
-6 0 10 -262144 -1 -1;
#X obj 217 3 tgl 15 1 1002-bass:active 1002-bass:active empty 0 -6
0 10 -262144 -1 -1 1 1;
#X coords 0 -1 1 1 235 270 1 0 0;
#X restore 247 324 pd \$0-bass;
#X obj 23 542 bng 15 250 50 0 reload empty empty 17 7 0 10 -262144
-1 -1;
#X text 47 540 reload all Faust modules;
#X obj 22 187 midiosc what_a_friend;
#N canvas 2 52 450 300 \$0-acc 0;
#X obj 10 30 hsl 128 15 0 1 0 0 1002-acc:subtractive/1-adsr/attack
1002-acc:subtractive/1-adsr/attack attack -2 -6 0 10 -262144 -1 -1
127 1;
#X obj 160 30 nbx 5 14 0 1 0 0 1002-acc:subtractive/1-adsr/attack 1002-acc:subtractive/1-adsr/attack
empty 0 -6 0 10 -262144 -1 -1 0.01 256;
#X obj 10 60 hsl 128 15 0 1 0 0 1002-acc:subtractive/1-adsr/decay 1002-acc:subtractive/1-adsr/decay
decay -2 -6 0 10 -262144 -1 -1 3810 1;
#X obj 160 60 nbx 5 14 0 1 0 0 1002-acc:subtractive/1-adsr/decay 1002-acc:subtractive/1-adsr/decay
empty 0 -6 0 10 -262144 -1 -1 0.3 256;
#X obj 10 90 hsl 128 15 0 1 0 0 1002-acc:subtractive/1-adsr/release
1002-acc:subtractive/1-adsr/release release -2 -6 0 10 -262144 -1 -1
2540 1;
#X obj 160 90 nbx 5 14 0 1 0 0 1002-acc:subtractive/1-adsr/release
1002-acc:subtractive/1-adsr/release empty 0 -6 0 10 -262144 -1 -1 0.2
256;
#X obj 10 120 hsl 128 15 0 1 0 0 1002-acc:subtractive/1-adsr/sustain
1002-acc:subtractive/1-adsr/sustain sustain -2 -6 0 10 -262144 -1 -1
6350 1;
#X obj 160 120 nbx 5 14 0 1 0 0 1002-acc:subtractive/1-adsr/sustain
1002-acc:subtractive/1-adsr/sustain empty 0 -6 0 10 -262144 -1 -1 0.5
256;
#X obj 10 150 hsl 128 15 1 20 0 0 1002-acc:subtractive/2-filter/cutoff-harmonic
1002-acc:subtractive/2-filter/cutoff-harmonic cutoff-harmonic -2 -6
0 10 -262144 -1 -1 3342 1;
#X obj 160 150 nbx 5 14 1 20 0 0 1002-acc:subtractive/2-filter/cutoff-harmonic
1002-acc:subtractive/2-filter/cutoff-harmonic empty 0 -6 0 10 -262144
-1 -1 6 256;
#X obj 10 180 hsl 128 15 0 20 0 0 1002-acc:subtractive/2-filter/resonance-dB
1002-acc:subtractive/2-filter/resonance-dB resonance-dB -2 -6 0 10
-262144 -1 -1 1905 1;
#X obj 160 180 nbx 5 14 0 20 0 0 1002-acc:subtractive/2-filter/resonance-dB
1002-acc:subtractive/2-filter/resonance-dB empty 0 -6 0 10 -262144
-1 -1 3 256;
#X obj 10 210 hsl 128 15 0 1 0 0 1002-acc:subtractive/3-master/pan
1002-acc:subtractive/3-master/pan pan -2 -6 0 10 -262144 -1 -1 6350
1;
#X obj 160 210 nbx 5 14 0 1 0 0 1002-acc:subtractive/3-master/pan 1002-acc:subtractive/3-master/pan
empty 0 -6 0 10 -262144 -1 -1 0.5 256;
#X obj 10 240 hsl 128 15 0 10 0 0 1002-acc:subtractive/3-master/vol
1002-acc:subtractive/3-master/vol vol -2 -6 0 10 -262144 -1 -1 381
1;
#X obj 160 240 nbx 5 14 0 10 0 0 1002-acc:subtractive/3-master/vol
1002-acc:subtractive/3-master/vol empty 0 -6 0 10 -262144 -1 -1 0.3
256;
#X obj 177 3 tgl 15 1 1002-acc:record 1002-acc:record empty 0 -6 0
10 -233017 -1 -1 0 1;
#X obj 197 3 bng 15 250 50 1 1002-acc:init 1002-acc:init empty 0 -6
0 10 -262144 -1 -1;
#X obj 217 3 tgl 15 1 1002-acc:active 1002-acc:active empty 0 -6 0
10 -262144 -1 -1 1 1;
#X coords 0 -1 1 1 235 270 1 0 0;
#X restore 247 16 pd \$0-acc;
#N canvas 5 78 450 300 \$0-mel 0;
#X obj 10 30 hsl 128 15 1 15 0 0 1002-mel:Envelopes-and-Vibrato/Vibrato-Parameters/Vibrato-Freq
1002-mel:Envelopes-and-Vibrato/Vibrato-Parameters/Vibrato-Freq Vibrato-Freq
-2 -6 0 10 -262144 -1 -1 4536 1;
#X obj 160 30 nbx 5 14 1 15 0 0 1002-mel:Envelopes-and-Vibrato/Vibrato-Parameters/Vibrato-Freq
1002-mel:Envelopes-and-Vibrato/Vibrato-Parameters/Vibrato-Freq empty
0 -6 0 10 -262144 -1 -1 6 256;
#X obj 10 60 hsl 128 15 0 1 0 0 1002-mel:Envelopes-and-Vibrato/Vibrato-Parameters/Vibrato-Gain
1002-mel:Envelopes-and-Vibrato/Vibrato-Parameters/Vibrato-Gain Vibrato-Gain
-2 -6 0 10 -262144 -1 -1 1270 1;
#X obj 160 60 nbx 5 14 0 1 0 0 1002-mel:Envelopes-and-Vibrato/Vibrato-Parameters/Vibrato-Gain
1002-mel:Envelopes-and-Vibrato/Vibrato-Parameters/Vibrato-Gain empty
0 -6 0 10 -262144 -1 -1 0.1 256;
#X obj 10 90 hsl 128 15 20 1000 0 0 1002-mel:Physical-and-Nonlinearity/Nonlinear-Filter-Parameters/Modulation-Freq*
1002-mel:Physical-and-Nonlinearity/Nonlinear-Filter-Parameters/Modulation-Freq*
Modulation-Frequency -2 -6 0 10 -262144 -1 -1 2592 1;
#X obj 160 90 nbx 5 14 20 1000 0 0 1002-mel:Physical-and-Nonlinearity/Nonlinear-Filter-Parameters/Modulation-Freq*
1002-mel:Physical-and-Nonlinearity/Nonlinear-Filter-Parameters/Modulation-Freq*
empty 0 -6 0 10 -262144 -1 -1 220 256;
#X obj 10 120 hradio 15 1 0 5 1002-mel:Physical-and-Nonlinearity/Nonlinear-Filter-Parameters/Modulation-Type
1002-mel:Physical-and-Nonlinearity/Nonlinear-Filter-Parameters/Modulation-Type
Modulation-Type 0 -6 0 10 -262144 -1 -1 0;
#X obj 10 150 hsl 128 15 0 1 0 0 1002-mel:Physical-and-Nonlinearity/Nonlinear-Filter-Parameters/Nonlinearity
1002-mel:Physical-and-Nonlinearity/Nonlinear-Filter-Parameters/Nonlinearity
Nonlinearity -2 -6 0 10 -262144 -1 -1 0 1;
#X obj 160 150 nbx 5 14 0 1 0 0 1002-mel:Physical-and-Nonlinearity/Nonlinear-Filter-Parameters/Nonlinearity
1002-mel:Physical-and-Nonlinearity/Nonlinear-Filter-Parameters/Nonlinearity
empty 0 -6 0 10 -262144 -1 -1 0 256;
#X obj 10 180 hradio 15 1 0 9 1002-mel:Physical-and-Nonlinearity/Physical-Parameters/Preset
1002-mel:Physical-and-Nonlinearity/Physical-Parameters/Preset Preset
0 -6 0 10 -262144 -1 -1 1;
#X obj 10 210 hradio 15 1 0 2 1002-mel:Physical-and-Nonlinearity/Physical-Parameters/Resonance
1002-mel:Physical-and-Nonlinearity/Physical-Parameters/Resonance Resonance
0 -6 0 10 -262144 -1 -1 1;
#X obj 10 240 hsl 128 15 0 1 0 0 1002-mel:Physical-and-Nonlinearity/Physical-Parameters/Stick-Hardness
1002-mel:Physical-and-Nonlinearity/Physical-Parameters/Stick-Hardness
Stick-Hardness -2 -6 0 10 -262144 -1 -1 3175 1;
#X obj 160 240 nbx 5 14 0 1 0 0 1002-mel:Physical-and-Nonlinearity/Physical-Parameters/Stick-Hardness
1002-mel:Physical-and-Nonlinearity/Physical-Parameters/Stick-Hardness
empty 0 -6 0 10 -262144 -1 -1 0.25 256;
#X obj 10 270 hsl 128 15 0 1 0 0 1002-mel:Reverb/reverbGain 1002-mel:Reverb/reverbGain
reverbGain -2 -6 0 10 -262144 -1 -1 1740 1;
#X obj 160 270 nbx 5 14 0 1 0 0 1002-mel:Reverb/reverbGain 1002-mel:Reverb/reverbGain
empty 0 -6 0 10 -262144 -1 -1 0.137 256;
#X obj 10 300 hsl 128 15 0.01 2 0 0 1002-mel:Reverb/roomSize 1002-mel:Reverb/roomSize
roomSize -2 -6 0 10 -262144 -1 -1 4531 1;
#X obj 160 300 nbx 5 14 0.01 2 0 0 1002-mel:Reverb/roomSize 1002-mel:Reverb/roomSize
empty 0 -6 0 10 -262144 -1 -1 0.72 256;
#X obj 10 330 hsl 128 15 0 1 0 0 1002-mel:Spat/pan-angle 1002-mel:Spat/pan-angle
pan-angle -2 -6 0 10 -262144 -1 -1 7620 1;
#X obj 160 330 nbx 5 14 0 1 0 0 1002-mel:Spat/pan-angle 1002-mel:Spat/pan-angle
empty 0 -6 0 10 -262144 -1 -1 0.6 256;
#X obj 10 360 hsl 128 15 0 1 0 0 1002-mel:Spat/spatial-width 1002-mel:Spat/spatial-width
spatial-width -2 -6 0 10 -262144 -1 -1 6350 1;
#X obj 160 360 nbx 5 14 0 1 0 0 1002-mel:Spat/spatial-width 1002-mel:Spat/spatial-width
empty 0 -6 0 10 -262144 -1 -1 0.5 256;
#X obj 177 3 tgl 15 1 1002-mel:record 1002-mel:record empty 0 -6 0
10 -233017 -1 -1 0 1;
#X obj 197 3 bng 15 250 50 1 1002-mel:init 1002-mel:init empty 0 -6
0 10 -262144 -1 -1;
#X obj 217 3 tgl 15 1 1002-mel:active 1002-mel:active empty 0 -6 0
10 -262144 -1 -1 1 1;
#X coords 0 -1 1 1 235 390 1 0 0;
#X restore 492 16 pd \$0-mel;
#X obj 22 311 fsynth~ subtractive "\$0-acc" 1 8;
#X obj 22 363 fsynth~ bass "\$0-bass" 0x00002 3;
#X obj 22 409 fdsp~ chorus "\$0-fx1" 0x00000001;
#X obj 22 440 fdsp~ freeverb "\$0-fx2" 0x000001;
#X obj 22 469 fdsp~ amp "\$0-fx3" 0x00000000001;
#X obj 22 337 fsynth~ modalBar "\$0-mel" 0x03 4;
#X connect 0 0 2 0;
#X connect 12 0 15 0;
#X connect 12 0 16 0;
#X connect 12 0 17 0;
#X connect 12 0 18 0;
#X connect 12 0 19 0;
#X connect 12 0 20 0;
#X connect 15 1 17 1;
#X connect 15 2 17 2;
#X connect 16 1 17 1;
#X connect 16 2 17 2;
#X connect 17 1 18 1;
#X connect 17 2 18 2;
#X connect 18 1 19 1;
#X connect 18 2 19 2;
#X connect 19 1 3 0;
#X connect 19 2 3 1;
#X connect 20 1 17 1;
#X connect 20 2 17 2;
